<svg xmlns="http://www.w3.org/2000/svg" xmlns:xlink="http://www.w3.org/1999/xlink" width="500" zoomAndPan="magnify" viewBox="0 0 375 374.999991" height="500" preserveAspectRatio="xMidYMid meet" version="1.0"><defs><clipPath id="4093879da8"><path d="M 98.128906 130 L 137 130 L 137 171 L 98.128906 171 Z M 98.128906 130 " clip-rule="nonzero"/></clipPath><clipPath id="16fee1c020"><path d="M 191 105.882812 L 230 105.882812 L 230 175 L 191 175 Z M 191 105.882812 " clip-rule="nonzero"/></clipPath><clipPath id="c0cec3f24c"><path d="M 238 130 L 276.730469 130 L 276.730469 175 L 238 175 Z M 238 130 " clip-rule="nonzero"/></clipPath><clipPath id="7178b09d7f"><path d="M 145 131 L 184 131 L 184 175 L 145 175 Z M 145 131 " clip-rule="nonzero"/></clipPath><clipPath id="f23cd06c0b"><path d="M 165.082031 131.300781 C 164.4375 130.933594 163.667969 130.933594 163.023438 131.300781 L 146.042969 141.121094 C 145.394531 141.484375 145.03125 142.171875 145.03125 142.898438 L 145.03125 162.585938 C 145.03125 163.3125 145.4375 164 146.042969 164.363281 L 163.023438 174.1875 C 163.667969 174.550781 164.4375 174.550781 165.082031 174.1875 L 182.0625 164.363281 C 182.710938 164 183.074219 163.3125 183.074219 162.585938 L 183.074219 142.898438 C 183.074219 142.171875 182.667969 141.484375 182.0625 141.121094 Z M 165.082031 131.300781 " clip-rule="evenodd"/></clipPath><linearGradient x1="1118.345093" gradientTransform="matrix(0.0698743, 0, 0, 0.0700175, 98.199625, 105.995417)" y1="308.988672" x2="766.676641" gradientUnits="userSpaceOnUse" y2="1026.377802" id="080ffb7ba6"><stop stop-opacity="1" stop-color="rgb(25.498962%, 52.89917%, 24.699402%)" offset="0"/><stop stop-opacity="1" stop-color="rgb(25.498962%, 53.02124%, 24.638367%)" offset="0.25"/><stop stop-opacity="1" stop-color="rgb(25.498962%, 53.263855%, 24.516296%)" offset="0.28125"/><stop stop-opacity="1" stop-color="rgb(25.498962%, 53.507996%, 24.394226%)" offset="0.299925"/><stop stop-opacity="1" stop-color="rgb(25.498962%, 53.630066%, 24.334717%)" offset="0.3125"/><stop stop-opacity="1" stop-color="rgb(25.498962%, 53.75061%, 24.273682%)" offset="0.34375"/><stop stop-opacity="1" stop-color="rgb(25.498962%, 53.993225%, 24.151611%)" offset="0.375"/><stop stop-opacity="1" stop-color="rgb(25.498962%, 54.237366%, 24.029541%)" offset="0.40625"/><stop stop-opacity="1" stop-color="rgb(25.498962%, 54.418945%, 23.939514%)" offset="0.421875"/><stop stop-opacity="1" stop-color="rgb(25.498962%, 54.638672%, 23.823547%)" offset="0.4375"/><stop stop-opacity="1" stop-color="rgb(25.498962%, 54.972839%, 23.64502%)" offset="0.453125"/><stop stop-opacity="1" stop-color="rgb(25.498962%, 55.323792%, 23.457336%)" offset="0.46875"/><stop stop-opacity="1" stop-color="rgb(25.498962%, 55.674744%, 23.269653%)" offset="0.484375"/><stop stop-opacity="1" stop-color="rgb(25.498962%, 56.025696%, 23.08197%)" offset="0.5"/><stop stop-opacity="1" stop-color="rgb(25.498962%, 56.378174%, 22.894287%)" offset="0.515625"/><stop stop-opacity="1" stop-color="rgb(25.498962%, 56.729126%, 22.706604%)" offset="0.53125"/><stop stop-opacity="1" stop-color="rgb(25.498962%, 57.080078%, 22.517395%)" offset="0.546875"/><stop stop-opacity="1" stop-color="rgb(25.498962%, 57.43103%, 22.329712%)" offset="0.5625"/><stop stop-opacity="1" stop-color="rgb(25.498962%, 57.783508%, 22.142029%)" offset="0.578125"/><stop stop-opacity="1" stop-color="rgb(25.498962%, 58.13446%, 21.954346%)" offset="0.59375"/><stop stop-opacity="1" stop-color="rgb(25.498962%, 58.485413%, 21.766663%)" offset="0.609375"/><stop stop-opacity="1" stop-color="rgb(25.494385%, 58.764648%, 21.617126%)" offset="0.617188"/><stop stop-opacity="1" stop-color="rgb(25.474548%, 59.025574%, 21.478271%)" offset="0.625"/><stop stop-opacity="1" stop-color="rgb(25.440979%, 59.339905%, 21.310425%)" offset="0.632812"/><stop stop-opacity="1" stop-color="rgb(25.40741%, 59.655762%, 21.141052%)" offset="0.640625"/><stop stop-opacity="1" stop-color="rgb(25.37384%, 59.971619%, 20.973206%)" offset="0.648438"/><stop stop-opacity="1" stop-color="rgb(25.340271%, 60.287476%, 20.805359%)" offset="0.65625"/><stop stop-opacity="1" stop-color="rgb(25.306702%, 60.603333%, 20.635986%)" offset="0.664062"/><stop stop-opacity="1" stop-color="rgb(25.273132%, 60.919189%, 20.46814%)" offset="0.671875"/><stop stop-opacity="1" stop-color="rgb(25.239563%, 61.235046%, 20.300293%)" offset="0.679688"/><stop stop-opacity="1" stop-color="rgb(25.205994%, 61.550903%, 20.13092%)" offset="0.6875"/><stop stop-opacity="1" stop-color="rgb(25.172424%, 61.86676%, 19.963074%)" offset="0.695312"/><stop stop-opacity="1" stop-color="rgb(25.138855%, 62.182617%, 19.795227%)" offset="0.700075"/><stop stop-opacity="1" stop-color="rgb(25.12207%, 62.339783%, 19.711304%)" offset="0.703125"/><stop stop-opacity="1" stop-color="rgb(25.105286%, 62.496948%, 19.625854%)" offset="0.710938"/><stop stop-opacity="1" stop-color="rgb(25.07019%, 62.812805%, 19.458008%)" offset="0.71875"/><stop stop-opacity="1" stop-color="rgb(25.036621%, 63.128662%, 19.288635%)" offset="0.726562"/><stop stop-opacity="1" stop-color="rgb(25.003052%, 63.444519%, 19.120789%)" offset="0.734375"/><stop stop-opacity="1" stop-color="rgb(24.969482%, 63.760376%, 18.952942%)" offset="0.742188"/><stop stop-opacity="1" stop-color="rgb(24.935913%, 64.076233%, 18.783569%)" offset="0.75"/><stop stop-opacity="1" stop-color="rgb(24.902344%, 64.39209%, 18.615723%)" offset="0.757812"/><stop stop-opacity="1" stop-color="rgb(24.868774%, 64.707947%, 18.447876%)" offset="0.765625"/><stop stop-opacity="1" stop-color="rgb(24.835205%, 65.023804%, 18.278503%)" offset="0.773438"/><stop stop-opacity="1" stop-color="rgb(24.801636%, 65.339661%, 18.110657%)" offset="0.78125"/><stop stop-opacity="1" stop-color="rgb(24.768066%, 65.655518%, 17.94281%)" offset="0.789063"/><stop stop-opacity="1" stop-color="rgb(24.734497%, 65.969849%, 17.773438%)" offset="0.796875"/><stop stop-opacity="1" stop-color="rgb(24.708557%, 66.293335%, 17.597961%)" offset="0.804688"/><stop stop-opacity="1" stop-color="rgb(24.699402%, 66.633606%, 17.404175%)" offset="0.8125"/><stop stop-opacity="1" stop-color="rgb(24.699402%, 66.983032%, 17.202759%)" offset="0.820313"/><stop stop-opacity="1" stop-color="rgb(24.699402%, 67.332458%, 16.999817%)" offset="0.828125"/><stop stop-opacity="1" stop-color="rgb(24.699402%, 67.681885%, 16.798401%)" offset="0.835938"/><stop stop-opacity="1" stop-color="rgb(24.699402%, 68.028259%, 16.598511%)" offset="0.84375"/><stop stop-opacity="1" stop-color="rgb(24.699402%, 68.199158%, 16.499329%)" offset="0.875"/><stop stop-opacity="1" stop-color="rgb(24.699402%, 68.199158%, 16.499329%)" offset="1"/></linearGradient><clipPath id="b252d57f43"><path d="M 145.015625 131.011719 L 183 131.011719 L 183 174.480469 L 145.015625 174.480469 Z M 145.015625 131.011719 " clip-rule="nonzero"/></clipPath><clipPath id="2fbd22c3b7"><path d="M 165.082031 131.300781 C 164.4375 130.933594 163.667969 130.933594 163.023438 131.300781 L 146.042969 141.121094 C 145.394531 141.484375 145.03125 142.171875 145.03125 142.898438 L 145.03125 162.585938 C 145.03125 163.3125 145.4375 164 146.042969 164.363281 L 163.023438 174.1875 C 163.667969 174.550781 164.4375 174.550781 165.082031 174.1875 L 182.0625 164.363281 C 182.710938 164 183.074219 163.3125 183.074219 162.585938 L 183.074219 142.898438 C 183.074219 142.171875 182.667969 141.484375 182.0625 141.121094 Z M 165.082031 131.300781 " clip-rule="nonzero"/></clipPath><clipPath id="79f28aecd4"><path d="M 182.105469 141.121094 L 165.042969 131.300781 C 164.878906 131.21875 164.679688 131.136719 164.515625 131.097656 L 145.394531 163.878906 C 145.558594 164.082031 145.757812 164.242188 145.960938 164.363281 L 163.023438 174.1875 C 163.507812 174.46875 164.074219 174.550781 164.597656 174.386719 L 182.546875 141.484375 C 182.425781 141.324219 182.265625 141.203125 182.105469 141.121094 Z M 182.105469 141.121094 " clip-rule="nonzero"/></clipPath><linearGradient x1="623.994629" gradientTransform="matrix(0.0698743, 0, 0, 0.0700175, 98.199625, 105.995417)" y1="908.482856" x2="1264.078143" gradientUnits="userSpaceOnUse" y2="435.556485" id="b0b984377a"><stop stop-opacity="1" stop-color="rgb(25.498962%, 52.89917%, 24.699402%)" offset="0"/><stop stop-opacity="1" stop-color="rgb(25.498962%, 52.89917%, 24.699402%)" offset="0.462659"/><stop stop-opacity="1" stop-color="rgb(25.498962%, 52.89917%, 24.699402%)" offset="0.5"/><stop stop-opacity="1" stop-color="rgb(25.498962%, 52.89917%, 24.699402%)" offset="0.537341"/><stop stop-opacity="1" stop-color="rgb(25.498962%, 52.89917%, 24.699402%)" offset="0.5625"/><stop stop-opacity="1" stop-color="rgb(25.576782%, 53.001404%, 24.719238%)" offset="0.578125"/><stop stop-opacity="1" stop-color="rgb(25.767517%, 53.2547%, 24.771118%)" offset="0.585938"/><stop stop-opacity="1" stop-color="rgb(25.994873%, 53.555298%, 24.833679%)" offset="0.59375"/><stop stop-opacity="1" stop-color="rgb(26.220703%, 53.85437%, 24.894714%)" offset="0.601562"/><stop stop-opacity="1" stop-color="rgb(26.446533%, 54.154968%, 24.95575%)" offset="0.609375"/><stop stop-opacity="1" stop-color="rgb(26.673889%, 54.454041%, 25.016785%)" offset="0.617187"/><stop stop-opacity="1" stop-color="rgb(26.899719%, 54.754639%, 25.07782%)" offset="0.625"/><stop stop-opacity="1" stop-color="rgb(27.127075%, 55.053711%, 25.138855%)" offset="0.632812"/><stop stop-opacity="1" stop-color="rgb(27.352905%, 55.354309%, 25.19989%)" offset="0.640625"/><stop stop-opacity="1" stop-color="rgb(27.580261%, 55.654907%, 25.260925%)" offset="0.648437"/><stop stop-opacity="1" stop-color="rgb(27.806091%, 55.953979%, 25.32196%)" offset="0.65625"/><stop stop-opacity="1" stop-color="rgb(28.031921%, 56.254578%, 25.384521%)" offset="0.664062"/><stop stop-opacity="1" stop-color="rgb(28.259277%, 56.55365%, 25.445557%)" offset="0.671875"/><stop stop-opacity="1" stop-color="rgb(28.485107%, 56.854248%, 25.506592%)" offset="0.679687"/><stop stop-opacity="1" stop-color="rgb(28.712463%, 57.15332%, 25.567627%)" offset="0.6875"/><stop stop-opacity="1" stop-color="rgb(28.938293%, 57.453918%, 25.628662%)" offset="0.695312"/><stop stop-opacity="1" stop-color="rgb(29.164124%, 57.752991%, 25.689697%)" offset="0.703125"/><stop stop-opacity="1" stop-color="rgb(29.391479%, 58.053589%, 25.750732%)" offset="0.710937"/><stop stop-opacity="1" stop-color="rgb(29.61731%, 58.354187%, 25.811768%)" offset="0.71875"/><stop stop-opacity="1" stop-color="rgb(29.844666%, 58.653259%, 25.872803%)" offset="0.726562"/><stop stop-opacity="1" stop-color="rgb(30.070496%, 58.953857%, 25.935364%)" offset="0.734375"/><stop stop-opacity="1" stop-color="rgb(30.297852%, 59.25293%, 25.996399%)" offset="0.742187"/><stop stop-opacity="1" stop-color="rgb(30.523682%, 59.553528%, 26.057434%)" offset="0.75"/><stop stop-opacity="1" stop-color="rgb(30.749512%, 59.8526%, 26.118469%)" offset="0.757812"/><stop stop-opacity="1" stop-color="rgb(30.976868%, 60.153198%, 26.179504%)" offset="0.765625"/><stop stop-opacity="1" stop-color="rgb(31.202698%, 60.452271%, 26.24054%)" offset="0.773437"/><stop stop-opacity="1" stop-color="rgb(31.430054%, 60.752869%, 26.301575%)" offset="0.78125"/><stop stop-opacity="1" stop-color="rgb(31.655884%, 61.053467%, 26.36261%)" offset="0.789062"/><stop stop-opacity="1" stop-color="rgb(31.881714%, 61.352539%, 26.425171%)" offset="0.796875"/><stop stop-opacity="1" stop-color="rgb(32.10907%, 61.653137%, 26.486206%)" offset="0.804687"/><stop stop-opacity="1" stop-color="rgb(32.3349%, 61.952209%, 26.547241%)" offset="0.8125"/><stop stop-opacity="1" stop-color="rgb(32.562256%, 62.252808%, 26.608276%)" offset="0.820312"/><stop stop-opacity="1" stop-color="rgb(32.788086%, 62.55188%, 26.669312%)" offset="0.828125"/><stop stop-opacity="1" stop-color="rgb(32.99408%, 62.825012%, 26.719666%)" offset="0.835938"/><stop stop-opacity="1" stop-color="rgb(33.178711%, 63.07373%, 26.757812%)" offset="0.84375"/><stop stop-opacity="1" stop-color="rgb(33.363342%, 63.320923%, 26.797485%)" offset="0.851562"/><stop stop-opacity="1" stop-color="rgb(33.5495%, 63.569641%, 26.835632%)" offset="0.859375"/><stop stop-opacity="1" stop-color="rgb(33.734131%, 63.816833%, 26.875305%)" offset="0.867187"/><stop stop-opacity="1" stop-color="rgb(33.918762%, 64.064026%, 26.914978%)" offset="0.875"/><stop stop-opacity="1" stop-color="rgb(34.104919%, 64.312744%, 26.953125%)" offset="0.882812"/><stop stop-opacity="1" stop-color="rgb(34.289551%, 64.559937%, 26.992798%)" offset="0.890625"/><stop stop-opacity="1" stop-color="rgb(34.474182%, 64.807129%, 27.032471%)" offset="0.898437"/><stop stop-opacity="1" stop-color="rgb(34.660339%, 65.055847%, 27.070618%)" offset="0.90625"/><stop stop-opacity="1" stop-color="rgb(34.844971%, 65.30304%, 27.110291%)" offset="0.914062"/><stop stop-opacity="1" stop-color="rgb(35.029602%, 65.550232%, 27.149963%)" offset="0.921875"/><stop stop-opacity="1" stop-color="rgb(35.215759%, 65.79895%, 27.18811%)" offset="0.929687"/><stop stop-opacity="1" stop-color="rgb(35.400391%, 66.046143%, 27.227783%)" offset="0.9375"/><stop stop-opacity="1" stop-color="rgb(35.585022%, 66.293335%, 27.26593%)" offset="0.945312"/><stop stop-opacity="1" stop-color="rgb(35.771179%, 66.542053%, 27.305603%)" offset="0.953125"/><stop stop-opacity="1" stop-color="rgb(35.955811%, 66.789246%, 27.345276%)" offset="0.960937"/><stop stop-opacity="1" stop-color="rgb(36.140442%, 67.036438%, 27.383423%)" offset="0.96875"/><stop stop-opacity="1" stop-color="rgb(36.326599%, 67.285156%, 27.423096%)" offset="0.976562"/><stop stop-opacity="1" stop-color="rgb(36.51123%, 67.532349%, 27.462769%)" offset="0.984375"/><stop stop-opacity="1" stop-color="rgb(36.695862%, 67.781067%, 27.500916%)" offset="0.992187"/><stop stop-opacity="1" stop-color="rgb(36.882019%, 68.028259%, 27.540588%)" offset="1"/></linearGradient><clipPath id="a8346fdd13"><path d="M 146 131.011719 L 183.097656 131.011719 L 183.097656 174.480469 L 146 174.480469 Z M 146 131.011719 " clip-rule="nonzero"/></clipPath><clipPath id="4c722a9d65"><path d="M 165.082031 131.300781 C 164.4375 130.933594 163.667969 130.933594 163.023438 131.300781 L 146.042969 141.121094 C 145.394531 141.484375 145.03125 142.171875 145.03125 142.898438 L 145.03125 162.585938 C 145.03125 163.3125 145.4375 164 146.042969 164.363281 L 163.023438 174.1875 C 163.667969 174.550781 164.4375 174.550781 165.082031 174.1875 L 182.0625 164.363281 C 182.710938 164 183.074219 163.3125 183.074219 162.585938 L 183.074219 142.898438 C 183.074219 142.171875 182.667969 141.484375 182.0625 141.121094 Z M 165.082031 131.300781 " clip-rule="nonzero"/></clipPath><clipPath id="9b49fd6bf3"><path d="M 182.105469 164.363281 C 182.589844 164.082031 182.953125 163.597656 183.113281 163.070312 L 164.4375 131.058594 C 163.953125 130.976562 163.425781 131.015625 162.984375 131.300781 L 146.042969 141.082031 L 164.316406 174.46875 C 164.558594 174.429688 164.839844 174.347656 165.082031 174.226562 Z M 182.105469 164.363281 " clip-rule="nonzero"/></clipPath><linearGradient x1="684.683973" gradientTransform="matrix(0.0698743, 0, 0, 0.0700175, 98.199625, 105.995417)" y1="667.565" x2="1214.64997" gradientUnits="userSpaceOnUse" y2="667.565" id="36048c91f9"><stop stop-opacity="1" stop-color="rgb(42.399597%, 75.299072%, 28.999329%)" offset="0"/><stop stop-opacity="1" stop-color="rgb(42.347717%, 75.231934%, 28.981018%)" offset="0.0625"/><stop stop-opacity="1" stop-color="rgb(42.204285%, 75.047302%, 28.933716%)" offset="0.078125"/><stop stop-opacity="1" stop-color="rgb(42.021179%, 74.812317%, 28.872681%)" offset="0.09375"/><stop stop-opacity="1" stop-color="rgb(41.8396%, 74.577332%, 28.813171%)" offset="0.109375"/><stop stop-opacity="1" stop-color="rgb(41.65802%, 74.34082%, 28.752136%)" offset="0.125"/><stop stop-opacity="1" stop-color="rgb(41.474915%, 74.105835%, 28.691101%)" offset="0.140625"/><stop stop-opacity="1" stop-color="rgb(41.293335%, 73.87085%, 28.630066%)" offset="0.15625"/><stop stop-opacity="1" stop-color="rgb(41.110229%, 73.635864%, 28.569031%)" offset="0.171875"/><stop stop-opacity="1" stop-color="rgb(40.92865%, 73.400879%, 28.509521%)" offset="0.1875"/><stop stop-opacity="1" stop-color="rgb(40.74707%, 73.164368%, 28.448486%)" offset="0.203125"/><stop stop-opacity="1" stop-color="rgb(40.563965%, 72.929382%, 28.387451%)" offset="0.21875"/><stop stop-opacity="1" stop-color="rgb(40.382385%, 72.694397%, 28.326416%)" offset="0.234375"/><stop stop-opacity="1" stop-color="rgb(40.19928%, 72.459412%, 28.266907%)" offset="0.25"/><stop stop-opacity="1" stop-color="rgb(39.987183%, 72.181702%, 28.20282%)" offset="0.265625"/><stop stop-opacity="1" stop-color="rgb(39.782715%, 71.908569%, 28.152466%)" offset="0.273438"/><stop stop-opacity="1" stop-color="rgb(39.614868%, 71.684265%, 28.117371%)" offset="0.28125"/><stop stop-opacity="1" stop-color="rgb(39.445496%, 71.458435%, 28.082275%)" offset="0.289062"/><stop stop-opacity="1" stop-color="rgb(39.277649%, 71.234131%, 28.045654%)" offset="0.296875"/><stop stop-opacity="1" stop-color="rgb(39.109802%, 71.008301%, 28.010559%)" offset="0.304688"/><stop stop-opacity="1" stop-color="rgb(38.941956%, 70.783997%, 27.975464%)" offset="0.3125"/><stop stop-opacity="1" stop-color="rgb(38.774109%, 70.559692%, 27.940369%)" offset="0.320312"/><stop stop-opacity="1" stop-color="rgb(38.606262%, 70.333862%, 27.903748%)" offset="0.328125"/><stop stop-opacity="1" stop-color="rgb(38.438416%, 70.109558%, 27.868652%)" offset="0.335937"/><stop stop-opacity="1" stop-color="rgb(38.269043%, 69.885254%, 27.833557%)" offset="0.34375"/><stop stop-opacity="1" stop-color="rgb(38.101196%, 69.659424%, 27.798462%)" offset="0.351562"/><stop stop-opacity="1" stop-color="rgb(37.93335%, 69.43512%, 27.761841%)" offset="0.359375"/><stop stop-opacity="1" stop-color="rgb(37.765503%, 69.20929%, 27.726746%)" offset="0.367187"/><stop stop-opacity="1" stop-color="rgb(37.597656%, 68.984985%, 27.69165%)" offset="0.375"/><stop stop-opacity="1" stop-color="rgb(37.42981%, 68.760681%, 27.655029%)" offset="0.382812"/><stop stop-opacity="1" stop-color="rgb(37.260437%, 68.534851%, 27.619934%)" offset="0.390625"/><stop stop-opacity="1" stop-color="rgb(37.09259%, 68.310547%, 27.584839%)" offset="0.398437"/><stop stop-opacity="1" stop-color="rgb(36.924744%, 68.086243%, 27.549744%)" offset="0.40625"/><stop stop-opacity="1" stop-color="rgb(36.756897%, 67.860413%, 27.513123%)" offset="0.414062"/><stop stop-opacity="1" stop-color="rgb(36.58905%, 67.636108%, 27.478027%)" offset="0.421875"/><stop stop-opacity="1" stop-color="rgb(36.421204%, 67.410278%, 27.442932%)" offset="0.429687"/><stop stop-opacity="1" stop-color="rgb(36.253357%, 67.185974%, 27.407837%)" offset="0.4375"/><stop stop-opacity="1" stop-color="rgb(36.083984%, 66.96167%, 27.371216%)" offset="0.445312"/><stop stop-opacity="1" stop-color="rgb(35.916138%, 66.73584%, 27.336121%)" offset="0.453125"/><stop stop-opacity="1" stop-color="rgb(35.748291%, 66.511536%, 27.301025%)" offset="0.460938"/><stop stop-opacity="1" stop-color="rgb(35.580444%, 66.285706%, 27.264404%)" offset="0.46875"/><stop stop-opacity="1" stop-color="rgb(35.412598%, 66.061401%, 27.229309%)" offset="0.476562"/><stop stop-opacity="1" stop-color="rgb(35.244751%, 65.837097%, 27.194214%)" offset="0.484375"/><stop stop-opacity="1" stop-color="rgb(35.076904%, 65.611267%, 27.159119%)" offset="0.492188"/><stop stop-opacity="1" stop-color="rgb(34.907532%, 65.386963%, 27.122498%)" offset="0.5"/><stop stop-opacity="1" stop-color="rgb(34.739685%, 65.162659%, 27.087402%)" offset="0.507812"/><stop stop-opacity="1" stop-color="rgb(34.571838%, 64.936829%, 27.052307%)" offset="0.515625"/><stop stop-opacity="1" stop-color="rgb(34.403992%, 64.712524%, 27.017212%)" offset="0.523438"/><stop stop-opacity="1" stop-color="rgb(34.236145%, 64.486694%, 26.980591%)" offset="0.53125"/><stop stop-opacity="1" stop-color="rgb(34.068298%, 64.26239%, 26.945496%)" offset="0.539062"/><stop stop-opacity="1" stop-color="rgb(33.900452%, 64.038086%, 26.9104%)" offset="0.546875"/><stop stop-opacity="1" stop-color="rgb(33.731079%, 63.812256%, 26.875305%)" offset="0.554687"/><stop stop-opacity="1" stop-color="rgb(33.563232%, 63.587952%, 26.838684%)" offset="0.5625"/><stop stop-opacity="1" stop-color="rgb(33.395386%, 63.363647%, 26.803589%)" offset="0.570312"/><stop stop-opacity="1" stop-color="rgb(33.227539%, 63.137817%, 26.768494%)" offset="0.578125"/><stop stop-opacity="1" stop-color="rgb(33.059692%, 62.913513%, 26.731873%)" offset="0.585938"/><stop stop-opacity="1" stop-color="rgb(32.881165%, 62.675476%, 26.6922%)" offset="0.59375"/><stop stop-opacity="1" stop-color="rgb(32.6828%, 62.414551%, 26.64032%)" offset="0.601562"/><stop stop-opacity="1" stop-color="rgb(32.478333%, 62.141418%, 26.585388%)" offset="0.609375"/><stop stop-opacity="1" stop-color="rgb(32.272339%, 61.869812%, 26.528931%)" offset="0.617188"/><stop stop-opacity="1" stop-color="rgb(32.066345%, 61.59668%, 26.473999%)" offset="0.625"/><stop stop-opacity="1" stop-color="rgb(31.861877%, 61.325073%, 26.419067%)" offset="0.632812"/><stop stop-opacity="1" stop-color="rgb(31.655884%, 61.051941%, 26.36261%)" offset="0.640625"/><stop stop-opacity="1" stop-color="rgb(31.44989%, 60.780334%, 26.307678%)" offset="0.648437"/><stop stop-opacity="1" stop-color="rgb(31.243896%, 60.508728%, 26.251221%)" offset="0.65625"/><stop stop-opacity="1" stop-color="rgb(31.039429%, 60.235596%, 26.196289%)" offset="0.664062"/><stop stop-opacity="1" stop-color="rgb(30.833435%, 59.963989%, 26.141357%)" offset="0.671875"/><stop stop-opacity="1" stop-color="rgb(30.627441%, 59.690857%, 26.0849%)" offset="0.679688"/><stop stop-opacity="1" stop-color="rgb(30.421448%, 59.41925%, 26.029968%)" offset="0.6875"/><stop stop-opacity="1" stop-color="rgb(30.21698%, 59.146118%, 25.973511%)" offset="0.695312"/><stop stop-opacity="1" stop-color="rgb(30.010986%, 58.874512%, 25.918579%)" offset="0.703125"/><stop stop-opacity="1" stop-color="rgb(29.804993%, 58.602905%, 25.862122%)" offset="0.710937"/><stop stop-opacity="1" stop-color="rgb(29.598999%, 58.329773%, 25.80719%)" offset="0.71875"/><stop stop-opacity="1" stop-color="rgb(29.394531%, 58.058167%, 25.752258%)" offset="0.726562"/><stop stop-opacity="1" stop-color="rgb(29.188538%, 57.785034%, 25.695801%)" offset="0.734375"/><stop stop-opacity="1" stop-color="rgb(28.982544%, 57.513428%, 25.640869%)" offset="0.742187"/><stop stop-opacity="1" stop-color="rgb(28.778076%, 57.240295%, 25.584412%)" offset="0.75"/><stop stop-opacity="1" stop-color="rgb(28.572083%, 56.968689%, 25.52948%)" offset="0.757812"/><stop stop-opacity="1" stop-color="rgb(28.366089%, 56.697083%, 25.474548%)" offset="0.765625"/><stop stop-opacity="1" stop-color="rgb(28.160095%, 56.42395%, 25.418091%)" offset="0.773437"/><stop stop-opacity="1" stop-color="rgb(27.955627%, 56.152344%, 25.363159%)" offset="0.78125"/><stop stop-opacity="1" stop-color="rgb(27.749634%, 55.879211%, 25.306702%)" offset="0.789062"/><stop stop-opacity="1" stop-color="rgb(27.54364%, 55.607605%, 25.25177%)" offset="0.796875"/><stop stop-opacity="1" stop-color="rgb(27.337646%, 55.334473%, 25.196838%)" offset="0.804688"/><stop stop-opacity="1" stop-color="rgb(27.133179%, 55.062866%, 25.140381%)" offset="0.8125"/><stop stop-opacity="1" stop-color="rgb(26.927185%, 54.79126%, 25.085449%)" offset="0.820312"/><stop stop-opacity="1" stop-color="rgb(26.721191%, 54.518127%, 25.028992%)" offset="0.828125"/><stop stop-opacity="1" stop-color="rgb(26.516724%, 54.246521%, 24.97406%)" offset="0.835938"/><stop stop-opacity="1" stop-color="rgb(26.31073%, 53.973389%, 24.917603%)" offset="0.84375"/><stop stop-opacity="1" stop-color="rgb(26.104736%, 53.701782%, 24.862671%)" offset="0.851562"/><stop stop-opacity="1" stop-color="rgb(25.898743%, 53.42865%, 24.807739%)" offset="0.859375"/><stop stop-opacity="1" stop-color="rgb(25.694275%, 53.157043%, 24.751282%)" offset="0.867187"/><stop stop-opacity="1" stop-color="rgb(25.544739%, 52.960205%, 24.711609%)" offset="0.875"/><stop stop-opacity="1" stop-color="rgb(25.498962%, 52.89917%, 24.699402%)" offset="1"/></linearGradient><clipPath id="5af075b93e"><path d="M 164 163 L 183.097656 163 L 183.097656 174.480469 L 164 174.480469 Z M 164 163 " clip-rule="nonzero"/></clipPath><clipPath id="9ca3c8e9b5"><path d="M 165.082031 131.300781 C 164.4375 130.933594 163.667969 130.933594 163.023438 131.300781 L 146.042969 141.121094 C 145.394531 141.484375 145.03125 142.171875 145.03125 142.898438 L 145.03125 162.585938 C 145.03125 163.3125 145.4375 164 146.042969 164.363281 L 163.023438 174.1875 C 163.667969 174.550781 164.4375 174.550781 165.082031 174.1875 L 182.0625 164.363281 C 182.710938 164 183.074219 163.3125 183.074219 162.585938 L 183.074219 142.898438 C 183.074219 142.171875 182.667969 141.484375 182.0625 141.121094 Z M 165.082031 131.300781 " clip-rule="nonzero"/></clipPath><clipPath id="39fe2e3754"><path d="M 182.105469 164.363281 L 165.082031 174.1875 C 164.839844 174.308594 164.597656 174.386719 164.316406 174.429688 L 164.71875 175.035156 L 183.675781 164.082031 L 183.675781 163.839844 L 183.152344 163.03125 C 183.03125 163.597656 182.628906 164.082031 182.105469 164.363281 Z M 182.105469 164.363281 " clip-rule="nonzero"/></clipPath><linearGradient x1="946.203932" gradientTransform="matrix(0.0698743, 0, 0, 0.0700175, 98.199625, 105.995417)" y1="900.68201" x2="1214.64997" gradientUnits="userSpaceOnUse" y2="900.68201" id="f9f6f14880"><stop stop-opacity="1" stop-color="rgb(34.963989%, 65.463257%, 27.13623%)" offset="0"/><stop stop-opacity="1" stop-color="rgb(34.880066%, 65.348816%, 27.11792%)" offset="0.015625"/><stop stop-opacity="1" stop-color="rgb(34.710693%, 65.122986%, 27.081299%)" offset="0.03125"/><stop stop-opacity="1" stop-color="rgb(34.541321%, 64.897156%, 27.046204%)" offset="0.046875"/><stop stop-opacity="1" stop-color="rgb(34.371948%, 64.6698%, 27.009583%)" offset="0.0625"/><stop stop-opacity="1" stop-color="rgb(34.202576%, 64.44397%, 26.974487%)" offset="0.078125"/><stop stop-opacity="1" stop-color="rgb(34.033203%, 64.21814%, 26.937866%)" offset="0.09375"/><stop stop-opacity="1" stop-color="rgb(33.863831%, 63.990784%, 26.902771%)" offset="0.109375"/><stop stop-opacity="1" stop-color="rgb(33.694458%, 63.764954%, 26.867676%)" offset="0.125"/><stop stop-opacity="1" stop-color="rgb(33.526611%, 63.539124%, 26.831055%)" offset="0.140625"/><stop stop-opacity="1" stop-color="rgb(33.357239%, 63.311768%, 26.795959%)" offset="0.15625"/><stop stop-opacity="1" stop-color="rgb(33.187866%, 63.085938%, 26.759338%)" offset="0.171875"/><stop stop-opacity="1" stop-color="rgb(33.018494%, 62.860107%, 26.724243%)" offset="0.1875"/><stop stop-opacity="1" stop-color="rgb(32.833862%, 62.614441%, 26.679993%)" offset="0.203125"/><stop stop-opacity="1" stop-color="rgb(32.63092%, 62.34436%, 26.626587%)" offset="0.21875"/><stop stop-opacity="1" stop-color="rgb(32.424927%, 62.071228%, 26.570129%)" offset="0.234375"/><stop stop-opacity="1" stop-color="rgb(32.217407%, 61.79657%, 26.515198%)" offset="0.25"/><stop stop-opacity="1" stop-color="rgb(32.011414%, 61.523438%, 26.45874%)" offset="0.265625"/><stop stop-opacity="1" stop-color="rgb(31.803894%, 61.248779%, 26.402283%)" offset="0.28125"/><stop stop-opacity="1" stop-color="rgb(31.596375%, 60.974121%, 26.347351%)" offset="0.296875"/><stop stop-opacity="1" stop-color="rgb(31.390381%, 60.700989%, 26.290894%)" offset="0.3125"/><stop stop-opacity="1" stop-color="rgb(31.182861%, 60.426331%, 26.234436%)" offset="0.328125"/><stop stop-opacity="1" stop-color="rgb(30.976868%, 60.153198%, 26.179504%)" offset="0.34375"/><stop stop-opacity="1" stop-color="rgb(30.769348%, 59.87854%, 26.123047%)" offset="0.359375"/><stop stop-opacity="1" stop-color="rgb(30.561829%, 59.603882%, 26.066589%)" offset="0.375"/><stop stop-opacity="1" stop-color="rgb(30.355835%, 59.33075%, 26.011658%)" offset="0.390625"/><stop stop-opacity="1" stop-color="rgb(30.148315%, 59.056091%, 25.9552%)" offset="0.40625"/><stop stop-opacity="1" stop-color="rgb(29.940796%, 58.782959%, 25.898743%)" offset="0.421875"/><stop stop-opacity="1" stop-color="rgb(29.734802%, 58.508301%, 25.843811%)" offset="0.4375"/><stop stop-opacity="1" stop-color="rgb(29.527283%, 58.233643%, 25.787354%)" offset="0.453125"/><stop stop-opacity="1" stop-color="rgb(29.321289%, 57.96051%, 25.730896%)" offset="0.46875"/><stop stop-opacity="1" stop-color="rgb(29.11377%, 57.685852%, 25.675964%)" offset="0.484375"/><stop stop-opacity="1" stop-color="rgb(28.90625%, 57.41272%, 25.619507%)" offset="0.5"/><stop stop-opacity="1" stop-color="rgb(28.700256%, 57.138062%, 25.564575%)" offset="0.515625"/><stop stop-opacity="1" stop-color="rgb(28.492737%, 56.863403%, 25.508118%)" offset="0.53125"/><stop stop-opacity="1" stop-color="rgb(28.285217%, 56.590271%, 25.45166%)" offset="0.546875"/><stop stop-opacity="1" stop-color="rgb(28.079224%, 56.315613%, 25.396729%)" offset="0.5625"/><stop stop-opacity="1" stop-color="rgb(27.871704%, 56.040955%, 25.340271%)" offset="0.578125"/><stop stop-opacity="1" stop-color="rgb(27.66571%, 55.767822%, 25.283813%)" offset="0.59375"/><stop stop-opacity="1" stop-color="rgb(27.458191%, 55.493164%, 25.228882%)" offset="0.609375"/><stop stop-opacity="1" stop-color="rgb(27.250671%, 55.220032%, 25.172424%)" offset="0.625"/><stop stop-opacity="1" stop-color="rgb(27.044678%, 54.945374%, 25.115967%)" offset="0.640625"/><stop stop-opacity="1" stop-color="rgb(26.837158%, 54.670715%, 25.061035%)" offset="0.65625"/><stop stop-opacity="1" stop-color="rgb(26.629639%, 54.397583%, 25.004578%)" offset="0.671875"/><stop stop-opacity="1" stop-color="rgb(26.423645%, 54.122925%, 24.94812%)" offset="0.6875"/><stop stop-opacity="1" stop-color="rgb(26.216125%, 53.849792%, 24.893188%)" offset="0.703125"/><stop stop-opacity="1" stop-color="rgb(26.010132%, 53.575134%, 24.836731%)" offset="0.71875"/><stop stop-opacity="1" stop-color="rgb(25.802612%, 53.300476%, 24.780273%)" offset="0.734375"/><stop stop-opacity="1" stop-color="rgb(25.598145%, 53.031921%, 24.725342%)" offset="0.75"/><stop stop-opacity="1" stop-color="rgb(25.498962%, 52.89917%, 24.699402%)" offset="1"/></linearGradient><linearGradient x1="1145.674968" gradientTransform="matrix(0.0698743, 0, 0, 0.0700175, 98.199625, 105.995417)" y1="780.766643" x2="1029.029714" gradientUnits="userSpaceOnUse" y2="1018.723314" id="2992f12f29"><stop stop-opacity="1" stop-color="rgb(25.498962%, 56.393433%, 22.885132%)" offset="0"/><stop stop-opacity="1" stop-color="rgb(25.498962%, 56.541443%, 22.805786%)" offset="0.0625"/><stop stop-opacity="1" stop-color="rgb(25.498962%, 56.835938%, 22.648621%)" offset="0.125"/><stop stop-opacity="1" stop-color="rgb(25.498962%, 57.131958%, 22.489929%)" offset="0.1875"/><stop stop-opacity="1" stop-color="rgb(25.498962%, 57.427979%, 22.332764%)" offset="0.25"/><stop stop-opacity="1" stop-color="rgb(25.498962%, 57.722473%, 22.174072%)" offset="0.3125"/><stop stop-opacity="1" stop-color="rgb(25.498962%, 58.018494%, 22.016907%)" offset="0.375"/><stop stop-opacity="1" stop-color="rgb(25.498962%, 58.312988%, 21.858215%)" offset="0.4375"/><stop stop-opacity="1" stop-color="rgb(25.498962%, 58.609009%, 21.70105%)" offset="0.445866"/><stop stop-opacity="1" stop-color="rgb(25.498962%, 58.757019%, 21.621704%)" offset="0.5"/><stop stop-opacity="1" stop-color="rgb(25.488281%, 58.87146%, 21.559143%)" offset="0.53125"/><stop stop-opacity="1" stop-color="rgb(25.463867%, 59.120178%, 21.426392%)" offset="0.554134"/><stop stop-opacity="1" stop-color="rgb(25.450134%, 59.25293%, 21.356201%)" offset="0.5625"/><stop stop-opacity="1" stop-color="rgb(25.436401%, 59.385681%, 21.286011%)" offset="0.59375"/><stop stop-opacity="1" stop-color="rgb(25.40741%, 59.651184%, 21.144104%)" offset="0.625"/><stop stop-opacity="1" stop-color="rgb(25.379944%, 59.916687%, 21.002197%)" offset="0.65625"/><stop stop-opacity="1" stop-color="rgb(25.350952%, 60.18219%, 20.860291%)" offset="0.6875"/><stop stop-opacity="1" stop-color="rgb(25.323486%, 60.447693%, 20.71991%)" offset="0.71875"/><stop stop-opacity="1" stop-color="rgb(25.294495%, 60.713196%, 20.578003%)" offset="0.75"/><stop stop-opacity="1" stop-color="rgb(25.267029%, 60.978699%, 20.436096%)" offset="0.78125"/><stop stop-opacity="1" stop-color="rgb(25.238037%, 61.244202%, 20.294189%)" offset="0.8125"/><stop stop-opacity="1" stop-color="rgb(25.209045%, 61.509705%, 20.153809%)" offset="0.84375"/><stop stop-opacity="1" stop-color="rgb(25.18158%, 61.775208%, 20.011902%)" offset="0.875"/><stop stop-opacity="1" stop-color="rgb(25.152588%, 62.04071%, 19.869995%)" offset="0.90625"/><stop stop-opacity="1" stop-color="rgb(25.125122%, 62.306213%, 19.728088%)" offset="0.9375"/><stop stop-opacity="1" stop-color="rgb(25.09613%, 62.57019%, 19.587708%)" offset="0.96875"/><stop stop-opacity="1" stop-color="rgb(25.068665%, 62.835693%, 19.445801%)" offset="1"/></linearGradient><clipPath id="cecaa25a2d"><path d="M 153 228 L 180 228 L 180 269.332031 L 153 269.332031 Z M 153 228 " clip-rule="nonzero"/></clipPath></defs><path fill="#007acc" d="M 91.101562 158.714844 L 77.917969 158.714844 L 77.917969 199.617188 L 72.53125 199.617188 L 72.53125 158.714844 L 59.429688 158.714844 L 59.429688 153.882812 L 91.101562 153.882812 Z M 115.9375 166.925781 L 100.90625 204.847656 C 98.253906 211.613281 94.476562 214.992188 89.652344 214.992188 C 88.285156 214.992188 87.160156 214.832031 86.277344 214.589844 L 86.277344 209.921875 C 87.402344 210.324219 88.449219 210.484375 89.332031 210.484375 C 91.984375 210.484375 93.914062 208.875 95.28125 205.734375 L 97.851562 199.535156 L 85.152344 166.925781 L 90.9375 166.925781 L 99.78125 192.046875 C 99.863281 192.367188 100.101562 193.175781 100.425781 194.542969 L 100.585938 194.542969 C 100.664062 194.058594 100.90625 193.253906 101.226562 192.128906 L 110.472656 166.925781 Z M 124.457031 194.863281 L 124.296875 194.863281 L 124.296875 214.589844 L 119.074219 214.589844 L 119.074219 166.925781 L 124.296875 166.925781 L 124.296875 172.644531 L 124.457031 172.644531 C 127.03125 168.296875 130.808594 166.121094 135.710938 166.121094 C 139.890625 166.121094 143.1875 167.570312 145.515625 170.46875 C 147.847656 173.367188 149.054688 177.3125 149.054688 182.222656 C 149.054688 187.699219 147.6875 192.046875 145.035156 195.347656 C 142.382812 198.648438 138.765625 200.257812 134.183594 200.257812 C 130.085938 200.421875 126.789062 198.570312 124.457031 194.863281 Z M 124.378906 181.742188 L 124.378906 186.332031 C 124.378906 189.066406 125.261719 191.324219 127.03125 193.175781 C 128.796875 195.027344 130.96875 195.992188 133.703125 195.992188 C 136.835938 195.992188 139.328125 194.785156 141.175781 192.367188 C 142.945312 189.953125 143.828125 186.570312 143.828125 182.222656 C 143.828125 178.601562 143.027344 175.703125 141.335938 173.691406 C 139.648438 171.597656 137.398438 170.628906 134.503906 170.628906 C 131.449219 170.628906 129.039062 171.675781 127.191406 173.769531 C 125.261719 175.863281 124.378906 178.519531 124.378906 181.742188 Z M 181.046875 184.558594 L 158.058594 184.558594 C 158.136719 188.183594 159.101562 191 160.949219 193.011719 C 162.800781 195.027344 165.371094 195.992188 168.667969 195.992188 C 172.363281 195.992188 175.742188 194.785156 178.792969 192.367188 L 178.792969 197.28125 C 175.902344 199.375 172.125 200.421875 167.460938 200.421875 C 162.878906 200.421875 159.261719 198.972656 156.609375 195.992188 C 153.957031 193.011719 152.671875 188.828125 152.671875 183.511719 C 152.671875 178.441406 154.117188 174.253906 157.011719 171.113281 C 159.90625 167.894531 163.441406 166.28125 167.703125 166.28125 C 171.960938 166.28125 175.257812 167.652344 177.589844 170.46875 C 179.921875 173.207031 181.125 177.070312 181.125 181.984375 Z M 175.660156 180.128906 C 175.660156 177.070312 174.9375 174.738281 173.488281 173.046875 C 172.042969 171.355469 170.035156 170.550781 167.542969 170.550781 C 165.050781 170.550781 162.960938 171.433594 161.273438 173.207031 C 159.585938 174.976562 158.457031 177.3125 158.058594 180.128906 Z M 183.617188 198.003906 L 183.617188 194.382812 C 186.914062 196.476562 190.207031 197.523438 193.585938 197.523438 C 197.121094 197.523438 199.855469 196.796875 201.703125 195.269531 C 203.550781 193.738281 204.4375 191.726562 204.4375 189.066406 C 204.4375 186.734375 203.792969 184.882812 202.589844 183.433594 C 201.382812 182.0625 198.648438 180.128906 194.550781 177.714844 C 189.886719 174.976562 186.992188 172.722656 185.789062 170.953125 C 184.582031 169.101562 183.941406 167.007812 183.941406 164.671875 C 183.941406 161.453125 185.226562 158.714844 187.714844 156.460938 C 190.207031 154.207031 193.585938 153.078125 197.765625 153.078125 C 200.496094 153.078125 203.230469 153.5625 205.882812 154.449219 L 205.882812 157.75 C 203.230469 156.539062 200.335938 155.898438 197.285156 155.898438 C 194.148438 155.898438 191.734375 156.703125 189.886719 158.230469 C 188.039062 159.839844 187.15625 161.773438 187.15625 164.191406 C 187.15625 166.523438 187.796875 168.375 189.003906 169.746094 C 190.207031 171.113281 192.941406 173.046875 197.039062 175.378906 C 201.300781 177.796875 204.113281 179.96875 205.5625 181.820312 C 207.007812 183.671875 207.652344 185.847656 207.652344 188.34375 C 207.652344 191.886719 206.445312 194.703125 204.035156 196.957031 C 201.625 199.210938 198.167969 200.257812 193.746094 200.257812 C 192.136719 200.257812 190.371094 200.019531 188.28125 199.535156 C 186.191406 199.050781 184.664062 198.648438 183.617188 198.003906 Z M 234.820312 198.164062 C 232.40625 199.617188 229.515625 200.421875 226.140625 200.421875 C 221.71875 200.421875 218.101562 198.890625 215.367188 195.832031 C 212.636719 192.769531 211.269531 188.828125 211.269531 183.835938 C 211.269531 178.683594 212.796875 174.414062 215.851562 171.113281 C 218.90625 167.8125 222.84375 166.121094 227.667969 166.121094 C 230.160156 166.121094 232.570312 166.605469 234.898438 167.652344 L 234.898438 170.953125 C 232.570312 169.503906 229.996094 168.777344 227.265625 168.777344 C 223.40625 168.777344 220.351562 170.148438 217.941406 172.886719 C 215.53125 175.621094 214.402344 179.246094 214.402344 183.59375 C 214.402344 187.859375 215.53125 191.242188 217.699219 193.816406 C 219.871094 196.394531 222.761719 197.683594 226.300781 197.683594 C 229.59375 197.683594 232.40625 196.796875 234.820312 195.105469 Z M 254.273438 169.988281 C 253.308594 169.261719 252.183594 168.941406 250.816406 168.941406 C 248.242188 168.941406 246.074219 170.308594 244.386719 172.964844 C 242.617188 175.621094 241.8125 179.40625 241.8125 184.316406 L 241.8125 199.695312 L 238.917969 199.695312 L 238.917969 166.925781 L 241.8125 166.925781 L 241.8125 174.171875 L 241.972656 174.171875 C 242.695312 171.675781 243.902344 169.746094 245.511719 168.375 C 247.117188 167.007812 248.964844 166.28125 251.136719 166.28125 C 252.34375 166.28125 253.46875 166.445312 254.351562 166.847656 L 254.351562 169.988281 Z M 258.933594 158.714844 C 258.289062 158.714844 257.730469 158.472656 257.246094 157.988281 C 256.761719 157.507812 256.523438 156.945312 256.523438 156.21875 C 256.523438 155.496094 256.761719 154.929688 257.246094 154.527344 C 257.730469 154.125 258.289062 153.882812 258.933594 153.882812 C 259.578125 153.882812 260.140625 154.125 260.703125 154.527344 C 261.183594 154.929688 261.425781 155.496094 261.425781 156.21875 C 261.425781 156.863281 261.183594 157.507812 260.703125 157.988281 C 260.140625 158.472656 259.578125 158.714844 258.933594 158.714844 Z M 257.488281 199.617188 L 257.488281 166.925781 L 260.382812 166.925781 L 260.382812 199.617188 Z M 270.429688 193.816406 L 270.269531 193.816406 L 270.269531 214.671875 L 267.375 214.671875 L 267.375 166.925781 L 270.269531 166.925781 L 270.269531 173.691406 L 270.429688 173.691406 C 271.632812 171.273438 273.242188 169.421875 275.410156 168.132812 C 277.582031 166.847656 279.992188 166.203125 282.566406 166.203125 C 286.746094 166.203125 289.960938 167.652344 292.292969 170.46875 C 294.625 173.367188 295.75 177.234375 295.75 182.144531 C 295.75 187.617188 294.382812 192.046875 291.730469 195.429688 C 289.078125 198.808594 285.539062 200.5 281.199219 200.5 C 276.375 200.421875 272.757812 198.246094 270.429688 193.816406 Z M 270.269531 181.660156 L 270.269531 185.765625 C 270.269531 189.066406 271.3125 191.886719 273.320312 194.222656 C 275.410156 196.554688 278.066406 197.761719 281.441406 197.761719 C 284.734375 197.761719 287.46875 196.3125 289.558594 193.496094 C 291.648438 190.597656 292.695312 186.894531 292.695312 182.222656 C 292.695312 178.117188 291.730469 174.898438 289.800781 172.484375 C 287.871094 170.066406 285.378906 168.859375 282.164062 168.859375 C 278.386719 168.859375 275.410156 170.148438 273.320312 172.722656 C 271.234375 175.300781 270.269531 178.199219 270.269531 181.660156 Z M 313.511719 199.132812 C 311.984375 199.855469 310.539062 200.179688 309.253906 200.179688 C 304.429688 200.179688 302.019531 197.28125 302.019531 191.484375 L 302.019531 169.664062 L 296.148438 169.664062 L 296.148438 167.007812 L 302.019531 167.007812 L 302.019531 158.472656 L 303.464844 157.988281 L 304.914062 157.507812 L 304.914062 167.007812 L 313.511719 167.007812 L 313.511719 169.664062 L 304.914062 169.664062 L 304.914062 191.242188 C 304.914062 193.496094 305.234375 195.105469 305.957031 196.152344 C 306.679688 197.199219 307.886719 197.683594 309.574219 197.683594 C 310.777344 197.683594 312.066406 197.28125 313.511719 196.476562 Z M 313.511719 199.132812 " fill-opacity="1" fill-rule="nonzero"/><path fill="#ffffff" d="M 56.972656 144.3125 L 318.792969 144.3125 L 318.792969 219.632812 L 56.972656 219.632812 Z M 56.972656 144.3125 " fill-opacity="1" fill-rule="nonzero"/><path fill="#699f63" d="M 186.378906 215.496094 C 185.773438 215.496094 185.210938 215.335938 184.6875 215.050781 L 179.320312 211.859375 C 178.515625 211.414062 178.917969 211.253906 179.160156 211.171875 C 180.25 210.808594 180.449219 210.726562 181.578125 210.082031 C 181.699219 210 181.863281 210.039062 181.984375 210.121094 L 186.097656 212.585938 C 186.257812 212.667969 186.460938 212.667969 186.582031 212.585938 L 202.675781 203.25 C 202.839844 203.167969 202.917969 203.007812 202.917969 202.804688 L 202.917969 184.171875 C 202.917969 183.96875 202.839844 183.804688 202.675781 183.726562 L 186.582031 174.429688 C 186.421875 174.347656 186.21875 174.347656 186.097656 174.429688 L 170.003906 183.726562 C 169.839844 183.804688 169.761719 184.007812 169.761719 184.171875 L 169.761719 202.804688 C 169.761719 202.96875 169.839844 203.167969 170.003906 203.25 L 174.398438 205.796875 C 176.78125 207.007812 178.273438 205.59375 178.273438 204.179688 L 178.273438 185.789062 C 178.273438 185.546875 178.472656 185.300781 178.757812 185.300781 L 180.8125 185.300781 C 181.054688 185.300781 181.296875 185.503906 181.296875 185.789062 L 181.296875 204.179688 C 181.296875 207.371094 179.5625 209.230469 176.539062 209.230469 C 175.609375 209.230469 174.882812 209.230469 172.828125 208.222656 L 168.589844 205.796875 C 167.542969 205.191406 166.898438 204.058594 166.898438 202.84375 L 166.898438 184.210938 C 166.898438 183 167.542969 181.867188 168.589844 181.261719 L 184.6875 171.921875 C 185.695312 171.355469 187.066406 171.355469 188.074219 171.921875 L 204.167969 181.261719 C 205.21875 181.867188 205.863281 183 205.863281 184.210938 L 205.863281 202.84375 C 205.863281 204.058594 205.21875 205.191406 204.167969 205.796875 L 188.074219 215.132812 C 187.589844 215.335938 186.984375 215.496094 186.378906 215.496094 Z M 186.378906 215.496094 " fill-opacity="1" fill-rule="nonzero"/><path fill="#699f63" d="M 191.382812 202.683594 C 184.324219 202.683594 182.871094 199.449219 182.871094 196.699219 C 182.871094 196.457031 183.074219 196.214844 183.355469 196.214844 L 185.453125 196.214844 C 185.695312 196.214844 185.894531 196.378906 185.894531 196.621094 C 186.21875 198.761719 187.148438 199.8125 191.421875 199.8125 C 194.8125 199.8125 196.261719 199.046875 196.261719 197.226562 C 196.261719 196.175781 195.859375 195.40625 190.574219 194.882812 C 186.179688 194.4375 183.4375 193.46875 183.4375 189.949219 C 183.4375 186.675781 186.179688 184.738281 190.777344 184.738281 C 195.941406 184.738281 198.480469 186.515625 198.804688 190.394531 C 198.804688 190.515625 198.765625 190.636719 198.683594 190.757812 C 198.601562 190.839844 198.480469 190.921875 198.359375 190.921875 L 196.222656 190.921875 C 196.023438 190.921875 195.820312 190.757812 195.777344 190.558594 C 195.292969 188.332031 194.042969 187.605469 190.738281 187.605469 C 187.027344 187.605469 186.582031 188.898438 186.582031 189.871094 C 186.582031 191.042969 187.105469 191.40625 192.109375 192.050781 C 197.070312 192.699219 199.410156 193.628906 199.410156 197.105469 C 199.410156 200.664062 196.464844 202.683594 191.382812 202.683594 Z M 191.382812 202.683594 " fill-opacity="1" fill-rule="nonzero"/><path fill="#699f63" d="M 214.617188 183.121094 C 214.617188 184.816406 213.207031 186.230469 211.511719 186.230469 C 209.816406 186.230469 208.40625 184.859375 208.40625 183.121094 C 208.40625 181.339844 209.855469 180.007812 211.511719 180.007812 C 213.164062 180.007812 214.617188 181.382812 214.617188 183.121094 Z M 208.890625 183.121094 C 208.890625 184.574219 210.058594 185.746094 211.472656 185.746094 C 212.921875 185.746094 214.09375 184.535156 214.09375 183.121094 C 214.09375 181.664062 212.921875 180.53125 211.472656 180.53125 C 210.101562 180.53125 208.890625 181.664062 208.890625 183.121094 Z M 210.339844 181.382812 L 211.550781 181.382812 C 211.953125 181.382812 212.761719 181.382812 212.761719 182.3125 C 212.761719 182.957031 212.359375 183.078125 212.117188 183.160156 C 212.601562 183.199219 212.640625 183.523438 212.679688 183.96875 C 212.722656 184.25 212.761719 184.738281 212.84375 184.898438 L 212.117188 184.898438 C 212.117188 184.738281 211.996094 183.847656 211.996094 183.804688 C 211.953125 183.605469 211.875 183.523438 211.632812 183.523438 L 211.027344 183.523438 L 211.027344 184.9375 L 210.339844 184.9375 Z M 210.988281 182.917969 L 211.511719 182.917969 C 211.953125 182.917969 212.035156 182.59375 212.035156 182.433594 C 212.035156 181.949219 211.714844 181.949219 211.511719 181.949219 L 210.945312 181.949219 L 210.945312 182.917969 Z M 210.988281 182.917969 " fill-opacity="1" fill-rule="nonzero"/><g clip-path="url(#4093879da8)"><path fill="#333333" d="M 136.480469 142.617188 C 136.480469 141.890625 136.078125 141.203125 135.433594 140.839844 L 118.367188 130.933594 C 118.085938 130.773438 117.765625 130.691406 117.441406 130.652344 C 117.402344 130.652344 117.28125 130.652344 117.28125 130.652344 C 116.957031 130.652344 116.632812 130.773438 116.351562 130.933594 L 99.25 140.796875 C 98.601562 141.164062 98.199219 141.847656 98.199219 142.617188 L 98.238281 169.132812 C 98.238281 169.496094 98.441406 169.863281 98.765625 170.023438 C 99.085938 170.226562 99.492188 170.226562 99.773438 170.023438 L 109.9375 164.203125 C 110.582031 163.839844 110.988281 163.152344 110.988281 162.425781 L 110.988281 150.015625 C 110.988281 149.285156 111.390625 148.601562 112.035156 148.234375 L 116.351562 145.730469 C 116.675781 145.527344 117.039062 145.445312 117.402344 145.445312 C 117.765625 145.445312 118.128906 145.527344 118.410156 145.730469 L 122.726562 148.234375 C 123.371094 148.601562 123.773438 149.285156 123.773438 150.015625 L 123.773438 162.425781 C 123.773438 163.152344 124.179688 163.839844 124.824219 164.203125 L 134.90625 170.023438 C 135.230469 170.226562 135.632812 170.226562 135.957031 170.023438 C 136.28125 169.863281 136.480469 169.496094 136.480469 169.132812 Z M 136.480469 142.617188 " fill-opacity="1" fill-rule="evenodd"/></g><g clip-path="url(#16fee1c020)"><path fill="#333333" d="M 218.691406 106.117188 C 218.367188 105.953125 217.964844 105.953125 217.683594 106.117188 C 217.359375 106.320312 217.160156 106.640625 217.160156 107.007812 L 217.160156 133.28125 C 217.160156 133.523438 217.039062 133.765625 216.796875 133.925781 C 216.554688 134.046875 216.3125 134.046875 216.070312 133.925781 L 211.792969 131.460938 C 211.148438 131.097656 210.382812 131.097656 209.738281 131.460938 L 192.632812 141.363281 C 191.988281 141.726562 191.582031 142.414062 191.582031 143.144531 L 191.582031 162.910156 C 191.582031 163.636719 191.988281 164.324219 192.632812 164.6875 L 209.738281 174.589844 C 210.382812 174.953125 211.148438 174.953125 211.792969 174.589844 L 228.898438 164.6875 C 229.542969 164.324219 229.945312 163.636719 229.945312 162.910156 L 229.945312 113.636719 C 229.945312 112.867188 229.542969 112.179688 228.898438 111.816406 Z M 217.117188 156.402344 C 217.117188 156.601562 217.039062 156.765625 216.875 156.84375 L 211.027344 160.242188 C 210.867188 160.320312 210.664062 160.320312 210.503906 160.242188 L 204.652344 156.84375 C 204.492188 156.765625 204.414062 156.5625 204.414062 156.402344 L 204.414062 149.609375 C 204.414062 149.40625 204.492188 149.246094 204.652344 149.164062 L 210.503906 145.769531 C 210.664062 145.6875 210.867188 145.6875 211.027344 145.769531 L 216.875 149.164062 C 217.039062 149.246094 217.117188 149.449219 217.117188 149.609375 Z M 217.117188 156.402344 " fill-opacity="1" fill-rule="evenodd"/></g><g clip-path="url(#c0cec3f24c)"><path fill="#333333" d="M 275.609375 149.449219 C 276.253906 149.085938 276.617188 148.398438 276.617188 147.671875 L 276.617188 142.859375 C 276.617188 142.132812 276.214844 141.445312 275.609375 141.082031 L 258.625 131.21875 C 257.980469 130.855469 257.214844 130.855469 256.570312 131.21875 L 239.464844 141.121094 C 238.820312 141.484375 238.417969 142.171875 238.417969 142.898438 L 238.417969 162.667969 C 238.417969 163.394531 238.820312 164.082031 239.464844 164.445312 L 256.449219 174.144531 C 257.09375 174.511719 257.859375 174.511719 258.464844 174.144531 L 268.753906 168.40625 C 269.074219 168.246094 269.277344 167.878906 269.277344 167.515625 C 269.277344 167.152344 269.074219 166.789062 268.753906 166.628906 L 251.566406 156.722656 C 251.246094 156.523438 251.042969 156.199219 251.042969 155.835938 L 251.042969 149.652344 C 251.042969 149.285156 251.246094 148.921875 251.566406 148.761719 L 256.933594 145.6875 C 257.257812 145.488281 257.660156 145.488281 257.980469 145.6875 L 263.347656 148.761719 C 263.667969 148.964844 263.871094 149.285156 263.871094 149.652344 L 263.871094 154.5 C 263.871094 154.863281 264.074219 155.230469 264.394531 155.390625 C 264.71875 155.59375 265.121094 155.59375 265.445312 155.390625 Z M 275.609375 149.449219 " fill-opacity="1" fill-rule="evenodd"/></g><path fill="#699f63" d="M 257.335938 148.519531 C 257.457031 148.4375 257.617188 148.4375 257.738281 148.519531 L 261.007812 150.417969 C 261.128906 150.5 261.207031 150.621094 261.207031 150.78125 L 261.207031 154.582031 C 261.207031 154.742188 261.128906 154.863281 261.007812 154.945312 L 257.738281 156.84375 C 257.617188 156.925781 257.457031 156.925781 257.335938 156.84375 L 254.070312 154.945312 C 253.949219 154.863281 253.867188 154.742188 253.867188 154.582031 L 253.867188 150.78125 C 253.867188 150.621094 253.949219 150.5 254.070312 150.417969 Z M 257.335938 148.519531 " fill-opacity="1" fill-rule="evenodd"/><g clip-path="url(#7178b09d7f)"><g clip-path="url(#f23cd06c0b)"><path fill="url(#080ffb7ba6)" d="M 145.03125 130.933594 L 145.03125 174.550781 L 183.074219 174.550781 L 183.074219 130.933594 Z M 145.03125 130.933594 " fill-rule="nonzero"/></g></g><g clip-path="url(#b252d57f43)"><g clip-path="url(#2fbd22c3b7)"><g clip-path="url(#79f28aecd4)"><path fill="url(#b0b984377a)" d="M 145.394531 131.097656 L 145.394531 174.480469 L 182.546875 174.480469 L 182.546875 131.097656 Z M 145.394531 131.097656 " fill-rule="nonzero"/></g></g></g><g clip-path="url(#a8346fdd13)"><g clip-path="url(#4c722a9d65)"><g clip-path="url(#9b49fd6bf3)"><path fill="url(#36048c91f9)" d="M 146.042969 131.011719 L 146.042969 174.46875 L 183.074219 174.46875 L 183.074219 131.011719 Z M 146.042969 131.011719 " fill-rule="nonzero"/></g></g></g><g clip-path="url(#5af075b93e)"><g clip-path="url(#9ca3c8e9b5)"><g clip-path="url(#39fe2e3754)"><path fill="url(#f9f6f14880)" d="M 164.316406 163.03125 L 164.316406 174.480469 L 183.074219 174.480469 L 183.074219 163.03125 Z M 164.316406 163.03125 " fill-rule="nonzero"/><path fill="url(#2992f12f29)" d="M 164.316406 163.03125 L 164.316406 174.480469 L 183.074219 174.480469 L 183.074219 163.03125 Z M 164.316406 163.03125 " fill-rule="nonzero"/></g></g></g><path fill="#000000" d="M 101.75 250.058594 C 102.191406 251.753906 102.878906 253.25 103.808594 254.503906 C 104.734375 255.757812 105.90625 256.765625 107.355469 257.496094 C 108.808594 258.222656 110.582031 258.585938 112.679688 258.585938 C 115.789062 258.585938 118.367188 257.777344 120.425781 256.121094 C 122.484375 254.503906 123.734375 252.039062 124.257812 248.765625 L 125.386719 248.765625 C 124.984375 252.199219 123.613281 254.90625 121.3125 256.808594 C 119.015625 258.707031 116.191406 259.636719 112.800781 259.636719 C 110.503906 259.679688 108.527344 259.3125 106.914062 258.546875 C 105.300781 257.777344 103.96875 256.6875 102.917969 255.3125 C 101.871094 253.898438 101.105469 252.28125 100.621094 250.382812 C 100.136719 248.480469 99.851562 246.417969 99.851562 244.238281 C 99.851562 241.769531 100.214844 239.589844 100.941406 237.6875 C 101.667969 235.789062 102.636719 234.132812 103.808594 232.835938 C 104.976562 231.503906 106.386719 230.492188 107.960938 229.804688 C 109.535156 229.117188 111.148438 228.753906 112.800781 228.753906 C 115.101562 228.753906 117.078125 229.199219 118.730469 230.089844 C 120.386719 230.980469 121.757812 232.152344 122.804688 233.605469 C 123.855469 235.0625 124.621094 236.71875 125.105469 238.617188 C 125.589844 240.519531 125.792969 242.457031 125.710938 244.480469 L 101.023438 244.480469 C 101.0625 246.5 101.304688 248.359375 101.75 250.058594 Z M 123.816406 238.214844 C 123.332031 236.597656 122.5625 235.140625 121.597656 233.929688 C 120.628906 232.714844 119.417969 231.746094 117.964844 231.019531 C 116.511719 230.292969 114.820312 229.96875 112.921875 229.96875 C 111.308594 229.96875 109.816406 230.292969 108.40625 230.898438 C 106.992188 231.503906 105.785156 232.394531 104.734375 233.566406 C 103.6875 234.738281 102.839844 236.152344 102.191406 237.808594 C 101.546875 239.46875 101.144531 241.328125 101.0625 243.386719 L 124.621094 243.386719 C 124.582031 241.570312 124.339844 239.832031 123.816406 238.214844 Z M 123.816406 238.214844 " fill-opacity="1" fill-rule="nonzero"/><path fill="#000000" d="M 150.359375 229.484375 L 139.546875 243.753906 L 151.367188 259.070312 L 149.914062 259.070312 L 138.820312 244.640625 L 127.726562 259.070312 L 126.355469 259.070312 L 138.136719 243.753906 L 127.40625 229.484375 L 128.898438 229.484375 L 138.820312 242.902344 L 148.984375 229.484375 Z M 150.359375 229.484375 " fill-opacity="1" fill-rule="nonzero"/><g clip-path="url(#cecaa25a2d)"><path fill="#000000" d="M 153.707031 269.21875 L 153.707031 229.484375 L 154.835938 229.484375 L 154.835938 237.769531 L 154.957031 237.769531 C 155.320312 236.476562 155.882812 235.261719 156.609375 234.171875 C 157.335938 233.082031 158.183594 232.109375 159.191406 231.34375 C 160.199219 230.535156 161.328125 229.929688 162.621094 229.484375 C 163.910156 229.039062 165.28125 228.835938 166.777344 228.835938 C 168.710938 228.835938 170.488281 229.238281 172.019531 229.96875 C 173.554688 230.738281 174.882812 231.828125 175.972656 233.203125 C 177.0625 234.578125 177.910156 236.234375 178.472656 238.09375 C 179.039062 239.992188 179.320312 242.011719 179.320312 244.238281 C 179.320312 246.296875 179.039062 248.28125 178.472656 250.179688 C 177.910156 252.078125 177.101562 253.695312 176.054688 255.109375 C 175.003906 256.523438 173.671875 257.65625 172.101562 258.464844 C 170.527344 259.273438 168.710938 259.71875 166.695312 259.71875 C 163.546875 259.71875 160.96875 258.910156 158.949219 257.253906 C 156.933594 255.636719 155.5625 253.453125 154.875 250.785156 L 154.753906 250.785156 L 154.753906 269.21875 Z M 171.980469 257.332031 C 173.429688 256.484375 174.601562 255.351562 175.527344 253.980469 C 176.457031 252.605469 177.144531 251.066406 177.585938 249.371094 C 178.03125 247.671875 178.230469 245.933594 178.230469 244.238281 C 178.230469 242.335938 177.988281 240.519531 177.503906 238.78125 C 177.023438 237.082031 176.335938 235.546875 175.367188 234.253906 C 174.441406 232.917969 173.230469 231.867188 171.816406 231.101562 C 170.367188 230.332031 168.710938 229.96875 166.777344 229.96875 C 164.878906 229.96875 163.226562 230.371094 161.734375 231.101562 C 160.242188 231.867188 158.992188 232.917969 157.980469 234.210938 C 156.972656 235.507812 156.207031 237.042969 155.640625 238.738281 C 155.117188 240.476562 154.835938 242.296875 154.835938 244.195312 C 154.835938 248.84375 155.925781 252.402344 158.101562 254.867188 C 160.28125 257.332031 163.183594 258.585938 166.777344 258.585938 C 168.832031 258.628906 170.566406 258.183594 171.980469 257.332031 Z M 171.980469 257.332031 " fill-opacity="1" fill-rule="nonzero"/></g><path fill="#000000" d="M 184.566406 259.070312 L 184.566406 229.484375 L 185.695312 229.484375 L 185.695312 236.800781 L 185.816406 236.800781 C 186.097656 235.667969 186.5 234.65625 187.066406 233.644531 C 187.632812 232.675781 188.398438 231.828125 189.367188 231.101562 C 190.332031 230.371094 191.464844 229.804688 192.792969 229.363281 C 194.125 228.957031 195.660156 228.753906 197.433594 228.796875 L 197.433594 229.929688 C 195.417969 229.804688 193.640625 230.089844 192.1875 230.777344 C 190.695312 231.464844 189.484375 232.351562 188.558594 233.523438 C 187.589844 234.699219 186.90625 236.03125 186.421875 237.566406 C 185.976562 239.105469 185.734375 240.679688 185.734375 242.296875 L 185.734375 259.03125 L 184.566406 259.03125 Z M 184.566406 259.070312 " fill-opacity="1" fill-rule="nonzero"/><path fill="#000000" d="M 199.570312 250.058594 C 200.015625 251.753906 200.699219 253.25 201.628906 254.503906 C 202.554688 255.757812 203.726562 256.765625 205.179688 257.496094 C 206.628906 258.222656 208.40625 258.585938 210.503906 258.585938 C 213.609375 258.585938 216.191406 257.777344 218.246094 256.121094 C 220.304688 254.503906 221.554688 252.039062 222.082031 248.765625 L 223.210938 248.765625 C 222.804688 252.199219 221.433594 254.90625 219.136719 256.808594 C 216.835938 258.707031 214.011719 259.636719 210.625 259.636719 C 208.324219 259.679688 206.347656 259.3125 204.734375 258.546875 C 203.121094 257.777344 201.789062 256.6875 200.742188 255.3125 C 199.691406 253.898438 198.925781 252.28125 198.441406 250.382812 C 197.957031 248.480469 197.675781 246.417969 197.675781 244.238281 C 197.675781 241.769531 198.039062 239.589844 198.765625 237.6875 C 199.488281 235.789062 200.457031 234.132812 201.628906 232.835938 C 202.796875 231.503906 204.210938 230.492188 205.78125 229.804688 C 207.355469 229.117188 208.96875 228.753906 210.625 228.753906 C 212.921875 228.753906 214.898438 229.199219 216.554688 230.089844 C 218.207031 230.980469 219.578125 232.152344 220.628906 233.605469 C 221.675781 235.0625 222.441406 236.71875 222.925781 238.617188 C 223.410156 240.519531 223.613281 242.457031 223.53125 244.480469 L 198.84375 244.480469 C 198.886719 246.5 199.128906 248.359375 199.570312 250.058594 Z M 221.675781 238.214844 C 221.191406 236.597656 220.425781 235.140625 219.457031 233.929688 C 218.492188 232.714844 217.28125 231.746094 215.828125 231.019531 C 214.375 230.292969 212.679688 229.96875 210.785156 229.96875 C 209.171875 229.96875 207.679688 230.292969 206.265625 230.898438 C 204.855469 231.503906 203.644531 232.394531 202.597656 233.566406 C 201.546875 234.738281 200.699219 236.152344 200.054688 237.808594 C 199.410156 239.46875 199.007812 241.328125 198.925781 243.386719 L 222.484375 243.386719 C 222.402344 241.570312 222.160156 239.832031 221.675781 238.214844 Z M 221.675781 238.214844 " fill-opacity="1" fill-rule="nonzero"/><path fill="#000000" d="M 246.6875 234.457031 C 246.242188 233.402344 245.558594 232.554688 244.75 231.910156 C 243.902344 231.222656 242.894531 230.738281 241.726562 230.453125 C 240.554688 230.128906 239.265625 230.007812 237.851562 230.007812 C 235.796875 230.007812 234.140625 230.292969 232.972656 230.859375 C 231.800781 231.421875 230.914062 232.03125 230.308594 232.757812 C 229.746094 233.484375 229.382812 234.171875 229.21875 234.859375 C 229.058594 235.546875 228.976562 236.03125 228.976562 236.3125 C 228.976562 237.769531 229.261719 238.902344 229.867188 239.667969 C 230.46875 240.4375 231.238281 241.042969 232.246094 241.488281 C 233.292969 241.890625 234.382812 242.257812 235.59375 242.578125 C 236.804688 242.902344 238.214844 243.265625 239.828125 243.671875 C 240.957031 243.996094 242.128906 244.277344 243.257812 244.601562 C 244.386719 244.925781 245.394531 245.367188 246.285156 245.933594 C 247.171875 246.5 247.898438 247.226562 248.460938 248.117188 C 249.027344 249.007812 249.308594 250.136719 249.308594 251.554688 C 249.308594 253.050781 248.988281 254.300781 248.382812 255.351562 C 247.734375 256.402344 246.929688 257.253906 245.921875 257.898438 C 244.910156 258.546875 243.742188 259.03125 242.492188 259.3125 C 241.199219 259.597656 239.949219 259.757812 238.660156 259.757812 C 234.707031 259.757812 231.722656 258.910156 229.746094 257.171875 C 227.769531 255.433594 226.71875 252.726562 226.71875 249.007812 L 227.847656 249.007812 C 227.847656 252.363281 228.777344 254.785156 230.632812 256.363281 C 232.488281 257.898438 235.148438 258.707031 238.660156 258.707031 C 239.75 258.707031 240.835938 258.585938 241.96875 258.34375 C 243.097656 258.101562 244.105469 257.699219 245.03125 257.132812 C 245.960938 256.566406 246.726562 255.835938 247.292969 254.988281 C 247.898438 254.101562 248.179688 253.050781 248.179688 251.753906 C 248.179688 250.460938 247.898438 249.410156 247.292969 248.601562 C 246.6875 247.792969 245.921875 247.148438 244.992188 246.621094 C 244.066406 246.097656 242.976562 245.691406 241.765625 245.367188 C 240.554688 245.046875 239.304688 244.761719 238.015625 244.4375 C 236.601562 244.074219 235.351562 243.753906 234.261719 243.46875 C 233.171875 243.144531 232.246094 242.820312 231.398438 242.417969 C 230.1875 241.890625 229.261719 241.125 228.695312 240.15625 C 228.132812 239.183594 227.847656 237.890625 227.847656 236.3125 C 227.847656 235.507812 228.011719 234.65625 228.375 233.765625 C 228.734375 232.878906 229.300781 232.070312 230.109375 231.34375 C 230.914062 230.613281 231.964844 230.007812 233.214844 229.5625 C 234.464844 229.117188 236.039062 228.875 237.851562 228.875 C 241.160156 228.875 243.742188 229.644531 245.679688 231.140625 C 247.574219 232.636719 248.542969 235.019531 248.542969 238.335938 L 247.414062 238.335938 C 247.371094 236.757812 247.171875 235.464844 246.6875 234.457031 Z M 246.6875 234.457031 " fill-opacity="1" fill-rule="nonzero"/><path fill="#000000" d="M 273.308594 234.457031 C 272.867188 233.402344 272.179688 232.554688 271.375 231.910156 C 270.527344 231.222656 269.519531 230.738281 268.347656 230.453125 C 267.179688 230.128906 265.886719 230.007812 264.476562 230.007812 C 262.417969 230.007812 260.765625 230.292969 259.59375 230.859375 C 258.425781 231.421875 257.539062 232.03125 256.933594 232.757812 C 256.367188 233.484375 256.003906 234.171875 255.84375 234.859375 C 255.683594 235.546875 255.601562 236.03125 255.601562 236.3125 C 255.601562 237.769531 255.882812 238.902344 256.488281 239.667969 C 257.09375 240.4375 257.859375 241.042969 258.871094 241.488281 C 259.917969 241.890625 261.007812 242.257812 262.21875 242.578125 C 263.425781 242.902344 264.839844 243.265625 266.453125 243.671875 C 267.582031 243.996094 268.753906 244.277344 269.882812 244.601562 C 271.011719 244.925781 272.019531 245.367188 272.90625 245.933594 C 273.792969 246.5 274.519531 247.226562 275.085938 248.117188 C 275.652344 249.007812 275.933594 250.136719 275.933594 251.554688 C 275.933594 253.050781 275.609375 254.300781 275.003906 255.351562 C 274.359375 256.402344 273.554688 257.253906 272.542969 257.898438 C 271.535156 258.546875 270.367188 259.03125 269.113281 259.3125 C 267.824219 259.597656 266.574219 259.757812 265.28125 259.757812 C 261.328125 259.757812 258.34375 258.910156 256.367188 257.171875 C 254.390625 255.433594 253.34375 252.726562 253.34375 249.007812 L 254.472656 249.007812 C 254.472656 252.363281 255.398438 254.785156 257.257812 256.363281 C 259.109375 257.898438 261.773438 258.707031 265.28125 258.707031 C 266.371094 258.707031 267.460938 258.585938 268.589844 258.34375 C 269.71875 258.101562 270.730469 257.699219 271.65625 257.132812 C 272.585938 256.566406 273.351562 255.835938 273.914062 254.988281 C 274.519531 254.101562 274.804688 253.050781 274.804688 251.753906 C 274.804688 250.460938 274.519531 249.410156 273.914062 248.601562 C 273.308594 247.792969 272.542969 247.148438 271.617188 246.621094 C 270.6875 246.097656 269.597656 245.691406 268.390625 245.367188 C 267.179688 245.046875 265.929688 244.761719 264.636719 244.4375 C 263.226562 244.074219 261.976562 243.753906 260.886719 243.46875 C 259.796875 243.144531 258.871094 242.820312 258.023438 242.417969 C 256.8125 241.890625 255.882812 241.125 255.320312 240.15625 C 254.753906 239.183594 254.472656 237.890625 254.472656 236.3125 C 254.472656 235.507812 254.632812 234.65625 254.996094 233.765625 C 255.359375 232.878906 255.925781 232.070312 256.730469 231.34375 C 257.539062 230.613281 258.585938 230.007812 259.835938 229.5625 C 261.085938 229.117188 262.660156 228.875 264.476562 228.875 C 267.785156 228.875 270.367188 229.644531 272.300781 231.140625 C 274.199219 232.636719 275.167969 235.019531 275.167969 238.335938 L 274.035156 238.335938 C 273.996094 236.757812 273.753906 235.464844 273.308594 234.457031 Z M 273.308594 234.457031 " fill-opacity="1" fill-rule="nonzero"/></svg>