<svg xmlns="http://www.w3.org/2000/svg" xmlns:xlink="http://www.w3.org/1999/xlink" width="500" zoomAndPan="magnify" viewBox="0 0 375 374.999991" height="500" preserveAspectRatio="xMidYMid meet" version="1.0"><defs><clipPath id="063718265d"><path d="M 130.660156 130.660156 L 244.660156 130.660156 L 244.660156 244.660156 L 130.660156 244.660156 Z M 130.660156 130.660156 " clip-rule="nonzero"/></clipPath><clipPath id="e5f8d5b2cb"><path d="M 130.660156 130.660156 L 188 130.660156 L 188 244.660156 L 130.660156 244.660156 Z M 130.660156 130.660156 " clip-rule="nonzero"/></clipPath></defs><g clip-path="url(#063718265d)"><path fill="#ffc44d" d="M 134.902344 130.398438 C 133.761719 130.398438 132.675781 130.886719 131.921875 131.742188 C 131.167969 132.597656 130.816406 133.734375 130.957031 134.867188 L 141.5625 219.703125 C 141.726562 221.023438 142.539062 222.171875 143.730469 222.769531 L 186.148438 243.976562 C 187.269531 244.535156 188.585938 244.535156 189.707031 243.976562 L 232.125 222.769531 C 233.3125 222.171875 234.125 221.023438 234.292969 219.703125 L 244.894531 134.867188 C 245.039062 133.734375 244.6875 132.597656 243.933594 131.742188 C 243.175781 130.886719 242.089844 130.398438 240.949219 130.398438 Z M 134.902344 130.398438 " fill-opacity="1" fill-rule="nonzero"/></g><g clip-path="url(#e5f8d5b2cb)"><path fill="#e5b045" d="M 187.925781 130.398438 L 187.925781 244.398438 C 187.316406 244.398438 186.707031 244.257812 186.148438 243.976562 L 143.730469 222.769531 C 142.539062 222.171875 141.726562 221.023438 141.5625 219.703125 L 130.957031 134.867188 C 130.816406 133.734375 131.167969 132.597656 131.921875 131.742188 C 132.675781 130.886719 133.761719 130.398438 134.902344 130.398438 Z M 187.925781 130.398438 " fill-opacity="1" fill-rule="evenodd"/></g><path fill="#cfd8dc" d="M 179.972656 146.304688 C 182.171875 146.304688 183.949219 148.085938 183.949219 150.28125 L 183.949219 219.210938 C 183.949219 220.628906 183.195312 221.9375 181.96875 222.652344 C 180.742188 223.363281 179.230469 223.367188 178 222.664062 L 159.441406 212.058594 C 157.535156 210.96875 156.875 208.539062 157.964844 206.632812 C 159.054688 204.726562 161.480469 204.0625 163.390625 205.152344 L 175.996094 212.359375 L 175.996094 150.28125 C 175.996094 148.085938 177.777344 146.304688 179.972656 146.304688 Z M 179.972656 146.304688 " fill-opacity="1" fill-rule="evenodd"/><path fill="#eceff1" d="M 191.90625 150.28125 C 191.90625 148.085938 193.683594 146.304688 195.882812 146.304688 L 222.394531 146.304688 C 224.589844 146.304688 226.371094 148.085938 226.371094 150.28125 C 226.371094 152.476562 224.589844 154.257812 222.394531 154.257812 L 199.859375 154.257812 L 199.859375 179.789062 L 218.878906 175.5625 C 220.117188 175.285156 221.414062 175.617188 222.367188 176.457031 C 223.320312 177.296875 223.816406 178.539062 223.703125 179.804688 L 221.050781 208.964844 C 220.925781 210.339844 220.101562 211.546875 218.871094 212.164062 L 197.660156 222.769531 C 195.695312 223.75 193.308594 222.953125 192.324219 220.988281 C 191.34375 219.023438 192.140625 216.636719 194.101562 215.652344 L 213.332031 206.039062 L 215.289062 184.507812 L 196.746094 188.628906 C 195.566406 188.890625 194.332031 188.601562 193.394531 187.847656 C 192.453125 187.09375 191.90625 185.953125 191.90625 184.746094 Z M 191.90625 150.28125 " fill-opacity="1" fill-rule="evenodd"/></svg>