<svg xmlns="http://www.w3.org/2000/svg" xmlns:xlink="http://www.w3.org/1999/xlink" width="500" zoomAndPan="magnify" viewBox="0 0 375 374.999991" height="500" preserveAspectRatio="xMidYMid meet" version="1.0"><defs><clipPath id="fe33658c56"><path d="M 99.542969 141.761719 L 275.792969 141.761719 L 275.792969 233.261719 L 99.542969 233.261719 Z M 99.542969 141.761719 " clip-rule="nonzero"/></clipPath><clipPath id="38dc00ac30"><path d="M 99.542969 187.527344 C 99.542969 212.738281 138.996094 233.179688 187.664062 233.179688 C 236.332031 233.179688 275.789062 212.738281 275.789062 187.527344 C 275.789062 162.3125 236.332031 141.875 187.664062 141.875 C 138.996094 141.875 99.542969 162.3125 99.542969 187.527344 " clip-rule="nonzero"/></clipPath><clipPath id="5a6176dfc8"><path d="M 99.542969 187.527344 C 99.542969 212.738281 138.996094 233.179688 187.664062 233.179688 C 236.332031 233.179688 275.789062 212.738281 275.789062 187.527344 C 275.789062 162.3125 236.332031 141.875 187.664062 141.875 C 138.996094 141.875 99.542969 162.3125 99.542969 187.527344 " clip-rule="nonzero"/></clipPath><radialGradient gradientTransform="matrix(1.007649, 0, 0, 0.992351, 152.451615, 157.923096)" gradientUnits="userSpaceOnUse" r="114.839883" cx="0" id="11239d310d" cy="0" fx="0" fy="0"><stop stop-opacity="1" stop-color="rgb(68.199158%, 69.799805%, 83.499146%)" offset="0"/><stop stop-opacity="1" stop-color="rgb(68.199158%, 69.799805%, 83.499146%)" offset="0.25"/><stop stop-opacity="1" stop-color="rgb(68.164062%, 69.764709%, 83.473206%)" offset="0.296875"/><stop stop-opacity="1" stop-color="rgb(67.956543%, 69.555664%, 83.317566%)" offset="0.300781"/><stop stop-opacity="1" stop-color="rgb(67.608643%, 69.20929%, 83.059692%)" offset="0.304688"/><stop stop-opacity="1" stop-color="rgb(67.260742%, 68.861389%, 82.800293%)" offset="0.308594"/><stop stop-opacity="1" stop-color="rgb(66.914368%, 68.513489%, 82.542419%)" offset="0.3125"/><stop stop-opacity="1" stop-color="rgb(66.566467%, 68.167114%, 82.28302%)" offset="0.316406"/><stop stop-opacity="1" stop-color="rgb(66.220093%, 67.819214%, 82.025146%)" offset="0.320312"/><stop stop-opacity="1" stop-color="rgb(65.872192%, 67.472839%, 81.765747%)" offset="0.324219"/><stop stop-opacity="1" stop-color="rgb(65.525818%, 67.124939%, 81.506348%)" offset="0.328125"/><stop stop-opacity="1" stop-color="rgb(65.177917%, 66.778564%, 81.248474%)" offset="0.332031"/><stop stop-opacity="1" stop-color="rgb(64.831543%, 66.430664%, 80.989075%)" offset="0.335938"/><stop stop-opacity="1" stop-color="rgb(64.483643%, 66.08429%, 80.731201%)" offset="0.339844"/><stop stop-opacity="1" stop-color="rgb(64.135742%, 65.736389%, 80.471802%)" offset="0.34375"/><stop stop-opacity="1" stop-color="rgb(63.789368%, 65.388489%, 80.213928%)" offset="0.347656"/><stop stop-opacity="1" stop-color="rgb(63.441467%, 65.042114%, 79.954529%)" offset="0.351562"/><stop stop-opacity="1" stop-color="rgb(63.095093%, 64.694214%, 79.696655%)" offset="0.355469"/><stop stop-opacity="1" stop-color="rgb(62.747192%, 64.347839%, 79.437256%)" offset="0.359375"/><stop stop-opacity="1" stop-color="rgb(62.400818%, 63.999939%, 79.179382%)" offset="0.363281"/><stop stop-opacity="1" stop-color="rgb(62.052917%, 63.653564%, 78.919983%)" offset="0.367188"/><stop stop-opacity="1" stop-color="rgb(61.706543%, 63.305664%, 78.662109%)" offset="0.371094"/><stop stop-opacity="1" stop-color="rgb(61.358643%, 62.95929%, 78.40271%)" offset="0.375"/><stop stop-opacity="1" stop-color="rgb(61.010742%, 62.611389%, 78.144836%)" offset="0.378906"/><stop stop-opacity="1" stop-color="rgb(60.664368%, 62.263489%, 77.885437%)" offset="0.382812"/><stop stop-opacity="1" stop-color="rgb(60.316467%, 61.917114%, 77.627563%)" offset="0.386719"/><stop stop-opacity="1" stop-color="rgb(59.970093%, 61.569214%, 77.368164%)" offset="0.390625"/><stop stop-opacity="1" stop-color="rgb(59.622192%, 61.222839%, 77.108765%)" offset="0.394531"/><stop stop-opacity="1" stop-color="rgb(59.275818%, 60.874939%, 76.850891%)" offset="0.398438"/><stop stop-opacity="1" stop-color="rgb(58.927917%, 60.528564%, 76.591492%)" offset="0.402344"/><stop stop-opacity="1" stop-color="rgb(58.581543%, 60.180664%, 76.333618%)" offset="0.40625"/><stop stop-opacity="1" stop-color="rgb(58.233643%, 59.83429%, 76.074219%)" offset="0.410156"/><stop stop-opacity="1" stop-color="rgb(57.885742%, 59.486389%, 75.816345%)" offset="0.414062"/><stop stop-opacity="1" stop-color="rgb(57.539368%, 59.138489%, 75.556946%)" offset="0.417969"/><stop stop-opacity="1" stop-color="rgb(57.191467%, 58.792114%, 75.299072%)" offset="0.421875"/><stop stop-opacity="1" stop-color="rgb(56.845093%, 58.444214%, 75.039673%)" offset="0.425781"/><stop stop-opacity="1" stop-color="rgb(56.497192%, 58.097839%, 74.781799%)" offset="0.429688"/><stop stop-opacity="1" stop-color="rgb(56.150818%, 57.749939%, 74.5224%)" offset="0.433594"/><stop stop-opacity="1" stop-color="rgb(55.802917%, 57.403564%, 74.264526%)" offset="0.4375"/><stop stop-opacity="1" stop-color="rgb(55.456543%, 57.055664%, 74.005127%)" offset="0.441406"/><stop stop-opacity="1" stop-color="rgb(55.108643%, 56.70929%, 73.747253%)" offset="0.445312"/><stop stop-opacity="1" stop-color="rgb(54.760742%, 56.361389%, 73.487854%)" offset="0.449219"/><stop stop-opacity="1" stop-color="rgb(54.414368%, 56.013489%, 73.22998%)" offset="0.453125"/><stop stop-opacity="1" stop-color="rgb(54.066467%, 55.667114%, 72.970581%)" offset="0.457031"/><stop stop-opacity="1" stop-color="rgb(53.720093%, 55.319214%, 72.711182%)" offset="0.460938"/><stop stop-opacity="1" stop-color="rgb(53.372192%, 54.972839%, 72.453308%)" offset="0.464844"/><stop stop-opacity="1" stop-color="rgb(53.025818%, 54.624939%, 72.193909%)" offset="0.46875"/><stop stop-opacity="1" stop-color="rgb(52.677917%, 54.278564%, 71.936035%)" offset="0.472656"/><stop stop-opacity="1" stop-color="rgb(52.331543%, 53.930664%, 71.676636%)" offset="0.476562"/><stop stop-opacity="1" stop-color="rgb(51.983643%, 53.58429%, 71.418762%)" offset="0.480469"/><stop stop-opacity="1" stop-color="rgb(51.635742%, 53.236389%, 71.159363%)" offset="0.484375"/><stop stop-opacity="1" stop-color="rgb(51.289368%, 52.888489%, 70.901489%)" offset="0.488281"/><stop stop-opacity="1" stop-color="rgb(50.941467%, 52.542114%, 70.64209%)" offset="0.492188"/><stop stop-opacity="1" stop-color="rgb(50.595093%, 52.194214%, 70.384216%)" offset="0.496094"/><stop stop-opacity="1" stop-color="rgb(50.247192%, 51.847839%, 70.124817%)" offset="0.5"/><stop stop-opacity="1" stop-color="rgb(49.900818%, 51.499939%, 69.866943%)" offset="0.503906"/><stop stop-opacity="1" stop-color="rgb(49.552917%, 51.153564%, 69.607544%)" offset="0.507812"/><stop stop-opacity="1" stop-color="rgb(49.206543%, 50.805664%, 69.34967%)" offset="0.511719"/><stop stop-opacity="1" stop-color="rgb(48.858643%, 50.45929%, 69.090271%)" offset="0.515625"/><stop stop-opacity="1" stop-color="rgb(48.510742%, 50.111389%, 68.832397%)" offset="0.519531"/><stop stop-opacity="1" stop-color="rgb(48.164368%, 49.763489%, 68.572998%)" offset="0.523438"/><stop stop-opacity="1" stop-color="rgb(47.816467%, 49.417114%, 68.313599%)" offset="0.527344"/><stop stop-opacity="1" stop-color="rgb(47.470093%, 49.069214%, 68.055725%)" offset="0.53125"/><stop stop-opacity="1" stop-color="rgb(47.122192%, 48.722839%, 67.796326%)" offset="0.535156"/><stop stop-opacity="1" stop-color="rgb(46.775818%, 48.374939%, 67.538452%)" offset="0.539062"/><stop stop-opacity="1" stop-color="rgb(46.427917%, 48.028564%, 67.279053%)" offset="0.542969"/><stop stop-opacity="1" stop-color="rgb(46.081543%, 47.680664%, 67.021179%)" offset="0.546875"/><stop stop-opacity="1" stop-color="rgb(45.733643%, 47.33429%, 66.76178%)" offset="0.550781"/><stop stop-opacity="1" stop-color="rgb(45.385742%, 46.986389%, 66.503906%)" offset="0.554688"/><stop stop-opacity="1" stop-color="rgb(45.039368%, 46.638489%, 66.244507%)" offset="0.558594"/><stop stop-opacity="1" stop-color="rgb(44.691467%, 46.292114%, 65.986633%)" offset="0.5625"/><stop stop-opacity="1" stop-color="rgb(44.345093%, 45.944214%, 65.727234%)" offset="0.566406"/><stop stop-opacity="1" stop-color="rgb(43.997192%, 45.597839%, 65.46936%)" offset="0.570312"/><stop stop-opacity="1" stop-color="rgb(43.650818%, 45.249939%, 65.209961%)" offset="0.574219"/><stop stop-opacity="1" stop-color="rgb(43.302917%, 44.903564%, 64.952087%)" offset="0.578125"/><stop stop-opacity="1" stop-color="rgb(42.956543%, 44.555664%, 64.692688%)" offset="0.582031"/><stop stop-opacity="1" stop-color="rgb(42.608643%, 44.20929%, 64.434814%)" offset="0.585938"/><stop stop-opacity="1" stop-color="rgb(42.260742%, 43.861389%, 64.175415%)" offset="0.589844"/><stop stop-opacity="1" stop-color="rgb(41.914368%, 43.513489%, 63.916016%)" offset="0.59375"/><stop stop-opacity="1" stop-color="rgb(41.566467%, 43.167114%, 63.658142%)" offset="0.597656"/><stop stop-opacity="1" stop-color="rgb(41.220093%, 42.819214%, 63.398743%)" offset="0.601562"/><stop stop-opacity="1" stop-color="rgb(40.872192%, 42.472839%, 63.140869%)" offset="0.605469"/><stop stop-opacity="1" stop-color="rgb(40.525818%, 42.124939%, 62.88147%)" offset="0.609375"/><stop stop-opacity="1" stop-color="rgb(40.177917%, 41.778564%, 62.623596%)" offset="0.613281"/><stop stop-opacity="1" stop-color="rgb(39.831543%, 41.430664%, 62.364197%)" offset="0.617188"/><stop stop-opacity="1" stop-color="rgb(39.483643%, 41.08429%, 62.106323%)" offset="0.621094"/><stop stop-opacity="1" stop-color="rgb(39.135742%, 40.736389%, 61.846924%)" offset="0.625"/><stop stop-opacity="1" stop-color="rgb(38.789368%, 40.388489%, 61.58905%)" offset="0.628906"/><stop stop-opacity="1" stop-color="rgb(38.441467%, 40.042114%, 61.329651%)" offset="0.632812"/><stop stop-opacity="1" stop-color="rgb(38.095093%, 39.694214%, 61.071777%)" offset="0.636719"/><stop stop-opacity="1" stop-color="rgb(37.747192%, 39.347839%, 60.812378%)" offset="0.640625"/><stop stop-opacity="1" stop-color="rgb(37.400818%, 38.999939%, 60.554504%)" offset="0.644531"/><stop stop-opacity="1" stop-color="rgb(37.052917%, 38.653564%, 60.295105%)" offset="0.648438"/><stop stop-opacity="1" stop-color="rgb(36.706543%, 38.305664%, 60.037231%)" offset="0.652344"/><stop stop-opacity="1" stop-color="rgb(36.358643%, 37.95929%, 59.777832%)" offset="0.65625"/><stop stop-opacity="1" stop-color="rgb(36.010742%, 37.611389%, 59.518433%)" offset="0.660156"/><stop stop-opacity="1" stop-color="rgb(35.664368%, 37.263489%, 59.260559%)" offset="0.664062"/><stop stop-opacity="1" stop-color="rgb(35.316467%, 36.917114%, 59.00116%)" offset="0.667969"/><stop stop-opacity="1" stop-color="rgb(34.970093%, 36.569214%, 58.743286%)" offset="0.671875"/><stop stop-opacity="1" stop-color="rgb(34.622192%, 36.222839%, 58.483887%)" offset="0.675781"/><stop stop-opacity="1" stop-color="rgb(34.275818%, 35.874939%, 58.226013%)" offset="0.679688"/><stop stop-opacity="1" stop-color="rgb(33.927917%, 35.528564%, 57.966614%)" offset="0.683594"/><stop stop-opacity="1" stop-color="rgb(33.581543%, 35.180664%, 57.70874%)" offset="0.6875"/><stop stop-opacity="1" stop-color="rgb(33.233643%, 34.83429%, 57.449341%)" offset="0.691406"/><stop stop-opacity="1" stop-color="rgb(32.885742%, 34.486389%, 57.191467%)" offset="0.695312"/><stop stop-opacity="1" stop-color="rgb(32.539368%, 34.138489%, 56.932068%)" offset="0.699219"/><stop stop-opacity="1" stop-color="rgb(32.191467%, 33.792114%, 56.674194%)" offset="0.703125"/><stop stop-opacity="1" stop-color="rgb(31.845093%, 33.444214%, 56.414795%)" offset="0.707031"/><stop stop-opacity="1" stop-color="rgb(31.497192%, 33.097839%, 56.156921%)" offset="0.710938"/><stop stop-opacity="1" stop-color="rgb(31.150818%, 32.749939%, 55.897522%)" offset="0.714844"/><stop stop-opacity="1" stop-color="rgb(30.802917%, 32.403564%, 55.639648%)" offset="0.71875"/><stop stop-opacity="1" stop-color="rgb(30.456543%, 32.055664%, 55.380249%)" offset="0.722656"/><stop stop-opacity="1" stop-color="rgb(30.108643%, 31.70929%, 55.122375%)" offset="0.726562"/><stop stop-opacity="1" stop-color="rgb(29.760742%, 31.361389%, 54.862976%)" offset="0.730469"/><stop stop-opacity="1" stop-color="rgb(29.414368%, 31.013489%, 54.603577%)" offset="0.734375"/><stop stop-opacity="1" stop-color="rgb(29.066467%, 30.667114%, 54.345703%)" offset="0.738281"/><stop stop-opacity="1" stop-color="rgb(28.720093%, 30.319214%, 54.086304%)" offset="0.742188"/><stop stop-opacity="1" stop-color="rgb(28.372192%, 29.972839%, 53.82843%)" offset="0.746094"/><stop stop-opacity="1" stop-color="rgb(28.199768%, 29.798889%, 53.69873%)" offset="1"/></radialGradient></defs><g clip-path="url(#fe33658c56)"><g clip-path="url(#38dc00ac30)"><g clip-path="url(#5a6176dfc8)"><path fill="url(#11239d310d)" d="M 99.542969 141.875 L 99.542969 233.179688 L 275.789062 233.179688 L 275.789062 141.875 Z M 99.542969 141.875 " fill-rule="nonzero"/></g></g></g><path fill="#777bb3" d="M 187.664062 229.789062 C 234.433594 229.789062 272.34375 210.867188 272.34375 187.527344 C 272.34375 164.183594 234.433594 145.265625 187.664062 145.265625 C 140.898438 145.265625 102.984375 164.183594 102.984375 187.527344 C 102.984375 210.867188 140.898438 229.789062 187.664062 229.789062 " fill-opacity="1" fill-rule="nonzero"/><path fill="#000000" d="M 147.417969 192.765625 C 151.265625 192.765625 154.136719 192.066406 155.953125 190.691406 C 157.75 189.328125 158.988281 186.96875 159.640625 183.675781 C 160.246094 180.597656 160.015625 178.445312 158.953125 177.285156 C 157.867188 176.101562 155.519531 175.5 151.976562 175.5 L 145.832031 175.5 L 142.421875 192.765625 Z M 127.320312 214.03125 C 127.035156 214.03125 126.761719 213.90625 126.582031 213.6875 C 126.390625 213.460938 126.324219 213.203125 126.382812 212.910156 L 135.410156 167.160156 C 135.453125 166.941406 135.5625 166.757812 135.742188 166.613281 C 135.917969 166.472656 136.121094 166.398438 136.347656 166.398438 L 155.808594 166.398438 C 161.925781 166.398438 166.476562 168.03125 169.339844 171.261719 C 172.214844 174.503906 173.101562 179.035156 171.976562 184.734375 C 171.519531 187.054688 170.734375 189.210938 169.636719 191.140625 C 168.542969 193.070312 167.09375 194.859375 165.332031 196.453125 C 163.222656 198.398438 160.835938 199.804688 158.246094 200.636719 C 155.695312 201.453125 152.417969 201.871094 148.507812 201.871094 L 140.628906 201.871094 L 138.378906 213.269531 C 138.335938 213.492188 138.226562 213.675781 138.046875 213.816406 C 137.871094 213.960938 137.667969 214.03125 137.441406 214.03125 L 127.316406 214.03125 Z M 127.320312 214.03125 " fill-opacity="1" fill-rule="nonzero"/><path fill="#ffffff" d="M 146.617188 176.441406 L 151.976562 176.441406 C 156.253906 176.441406 157.738281 177.367188 158.246094 177.917969 C 159.082031 178.832031 159.242188 180.761719 158.703125 183.496094 C 158.097656 186.554688 156.976562 188.726562 155.367188 189.945312 C 153.722656 191.191406 151.046875 191.824219 147.417969 191.824219 L 143.585938 191.824219 L 146.621094 176.441406 Z M 155.808594 165.457031 L 136.347656 165.457031 C 136.128906 165.457031 135.910156 165.492188 135.703125 165.566406 C 135.496094 165.640625 135.304688 165.746094 135.132812 165.886719 C 134.960938 166.027344 134.820312 166.1875 134.707031 166.375 C 134.59375 166.566406 134.515625 166.765625 134.472656 166.980469 L 125.445312 212.734375 C 125.390625 213.007812 125.398438 213.285156 125.46875 213.554688 C 125.539062 213.828125 125.664062 214.074219 125.84375 214.289062 C 126.027344 214.507812 126.246094 214.675781 126.503906 214.796875 C 126.761719 214.914062 127.035156 214.976562 127.320312 214.976562 L 137.441406 214.976562 C 137.664062 214.976562 137.878906 214.9375 138.085938 214.863281 C 138.296875 214.792969 138.484375 214.683594 138.65625 214.546875 C 138.828125 214.40625 138.96875 214.242188 139.082031 214.054688 C 139.199219 213.867188 139.273438 213.667969 139.316406 213.453125 L 141.417969 202.8125 L 148.507812 202.8125 C 152.519531 202.8125 155.894531 202.382812 158.542969 201.53125 C 161.265625 200.660156 163.769531 199.183594 165.988281 197.144531 C 167.820312 195.480469 169.332031 193.617188 170.472656 191.601562 C 171.617188 189.585938 172.441406 187.332031 172.917969 184.914062 C 174.101562 178.917969 173.140625 174.117188 170.058594 170.644531 C 167.007812 167.203125 162.214844 165.460938 155.808594 165.460938 M 141.265625 193.710938 L 147.421875 193.710938 C 151.5 193.710938 154.539062 192.953125 156.535156 191.4375 C 158.535156 189.925781 159.882812 187.398438 160.582031 183.855469 C 161.25 180.457031 160.945312 178.058594 159.667969 176.660156 C 158.386719 175.261719 155.820312 174.5625 151.976562 174.5625 L 145.042969 174.5625 L 141.265625 193.710938 M 155.808594 167.34375 C 161.664062 167.34375 165.933594 168.855469 168.621094 171.882812 C 171.304688 174.90625 172.113281 179.132812 171.039062 184.554688 C 170.601562 186.789062 169.855469 188.832031 168.804688 190.683594 C 167.753906 192.53125 166.382812 194.226562 164.6875 195.761719 C 162.664062 197.625 160.421875 198.949219 157.949219 199.742188 C 155.480469 200.535156 152.335938 200.929688 148.511719 200.929688 L 139.839844 200.929688 L 137.441406 213.09375 L 127.320312 213.09375 L 136.351562 167.347656 L 155.8125 167.347656 " fill-opacity="1" fill-rule="nonzero"/><path fill="#000000" d="M 195.179688 201.867188 C 194.894531 201.867188 194.625 201.742188 194.441406 201.523438 C 194.261719 201.308594 194.1875 201.023438 194.242188 200.746094 L 198.234375 180.503906 C 198.617188 178.578125 198.523438 177.195312 197.972656 176.613281 C 197.636719 176.257812 196.625 175.65625 193.636719 175.65625 L 186.398438 175.65625 L 181.378906 201.105469 C 181.335938 201.328125 181.222656 201.507812 181.046875 201.652344 C 180.871094 201.796875 180.667969 201.867188 180.4375 201.867188 L 170.398438 201.867188 C 170.257812 201.867188 170.121094 201.835938 169.992188 201.777344 C 169.863281 201.71875 169.753906 201.632812 169.660156 201.523438 C 169.570312 201.417969 169.507812 201.292969 169.472656 201.15625 C 169.4375 201.023438 169.433594 200.882812 169.460938 200.746094 L 178.488281 154.996094 C 178.535156 154.777344 178.644531 154.59375 178.820312 154.449219 C 178.996094 154.304688 179.199219 154.234375 179.429688 154.234375 L 189.46875 154.234375 C 189.609375 154.234375 189.746094 154.265625 189.875 154.324219 C 190.003906 154.386719 190.117188 154.46875 190.207031 154.578125 C 190.296875 154.6875 190.359375 154.808594 190.394531 154.945312 C 190.429688 155.082031 190.433594 155.21875 190.40625 155.355469 L 188.226562 166.398438 L 196.011719 166.398438 C 201.941406 166.398438 205.964844 167.425781 208.304688 169.546875 C 210.695312 171.707031 211.4375 175.160156 210.519531 179.816406 L 206.320312 201.105469 C 206.273438 201.328125 206.164062 201.507812 205.988281 201.652344 C 205.8125 201.796875 205.609375 201.867188 205.378906 201.867188 Z M 195.179688 201.867188 " fill-opacity="1" fill-rule="nonzero"/><path fill="#ffffff" d="M 189.46875 153.292969 L 179.429688 153.292969 C 179.207031 153.292969 178.992188 153.332031 178.78125 153.402344 C 178.574219 153.476562 178.382812 153.585938 178.210938 153.722656 C 178.042969 153.863281 177.898438 154.027344 177.785156 154.214844 C 177.671875 154.402344 177.59375 154.601562 177.550781 154.816406 L 168.523438 200.566406 C 168.46875 200.84375 168.476562 201.117188 168.546875 201.390625 C 168.617188 201.664062 168.742188 201.90625 168.925781 202.125 C 169.105469 202.339844 169.324219 202.507812 169.585938 202.628906 C 169.84375 202.75 170.113281 202.808594 170.398438 202.808594 L 180.441406 202.808594 C 180.660156 202.808594 180.878906 202.773438 181.085938 202.699219 C 181.296875 202.625 181.484375 202.519531 181.65625 202.378906 C 181.828125 202.238281 181.96875 202.078125 182.082031 201.890625 C 182.195312 201.699219 182.273438 201.5 182.316406 201.285156 L 187.1875 176.597656 L 193.636719 176.597656 C 196.621094 176.597656 197.246094 177.226562 197.273438 177.253906 C 197.453125 177.445312 197.691406 178.332031 197.296875 180.324219 L 193.304688 200.566406 C 193.25 200.84375 193.257812 201.117188 193.328125 201.390625 C 193.398438 201.664062 193.523438 201.90625 193.707031 202.125 C 193.886719 202.339844 194.109375 202.507812 194.367188 202.628906 C 194.625 202.75 194.894531 202.808594 195.183594 202.808594 L 205.382812 202.808594 C 205.601562 202.808594 205.820312 202.773438 206.027344 202.699219 C 206.238281 202.625 206.425781 202.519531 206.597656 202.378906 C 206.769531 202.238281 206.910156 202.078125 207.023438 201.890625 C 207.136719 201.699219 207.214844 201.5 207.257812 201.285156 L 211.460938 179.996094 C 212.445312 175 211.601562 171.25 208.953125 168.851562 C 206.425781 166.566406 202.195312 165.457031 196.015625 165.457031 L 189.390625 165.457031 L 191.347656 155.535156 C 191.402344 155.257812 191.394531 154.984375 191.324219 154.710938 C 191.253906 154.441406 191.128906 154.195312 190.945312 153.976562 C 190.765625 153.761719 190.542969 153.59375 190.285156 153.472656 C 190.027344 153.351562 189.753906 153.292969 189.46875 153.292969 M 189.46875 155.175781 L 187.070312 167.339844 L 196.015625 167.339844 C 201.640625 167.339844 205.523438 168.308594 207.660156 170.238281 C 209.796875 172.171875 210.4375 175.304688 209.582031 179.636719 L 205.382812 200.925781 L 195.183594 200.925781 L 199.175781 180.683594 C 199.632812 178.382812 199.464844 176.808594 198.675781 175.972656 C 197.886719 175.136719 196.207031 174.714844 193.636719 174.714844 L 185.613281 174.714844 L 180.441406 200.925781 L 170.398438 200.925781 L 179.429688 155.175781 L 189.46875 155.175781 " fill-opacity="1" fill-rule="nonzero"/><path fill="#000000" d="M 226.40625 192.765625 C 230.253906 192.765625 233.121094 192.066406 234.9375 190.691406 C 236.734375 189.328125 237.976562 186.96875 238.628906 183.675781 C 239.234375 180.597656 239.003906 178.445312 237.941406 177.285156 C 236.855469 176.101562 234.507812 175.5 230.964844 175.5 L 224.816406 175.5 L 221.410156 192.765625 Z M 206.308594 214.03125 C 206.023438 214.03125 205.75 213.90625 205.570312 213.6875 C 205.378906 213.460938 205.3125 213.199219 205.367188 212.910156 L 214.398438 167.160156 C 214.441406 166.9375 214.550781 166.757812 214.726562 166.613281 C 214.90625 166.46875 215.105469 166.398438 215.335938 166.398438 L 234.796875 166.398438 C 240.910156 166.398438 245.464844 168.03125 248.324219 171.257812 C 251.203125 174.503906 252.089844 179.035156 250.964844 184.730469 C 250.507812 187.054688 249.71875 189.207031 248.625 191.136719 C 247.527344 193.070312 246.082031 194.859375 244.320312 196.453125 C 242.210938 198.394531 239.824219 199.804688 237.230469 200.636719 C 234.679688 201.453125 231.40625 201.867188 227.496094 201.867188 L 219.609375 201.867188 L 217.359375 213.269531 C 217.316406 213.492188 217.207031 213.671875 217.03125 213.816406 C 216.851562 213.960938 216.652344 214.03125 216.421875 214.03125 L 206.300781 214.03125 Z M 206.308594 214.03125 " fill-opacity="1" fill-rule="nonzero"/><path fill="#ffffff" d="M 225.605469 176.441406 L 230.964844 176.441406 C 235.242188 176.441406 236.726562 177.367188 237.230469 177.917969 C 238.070312 178.832031 238.226562 180.761719 237.691406 183.496094 C 237.085938 186.554688 235.964844 188.726562 234.355469 189.945312 C 232.710938 191.191406 230.035156 191.824219 226.40625 191.824219 L 222.570312 191.824219 Z M 234.796875 165.457031 L 215.335938 165.457031 C 215.113281 165.457031 214.898438 165.492188 214.691406 165.566406 C 214.480469 165.640625 214.289062 165.746094 214.121094 165.886719 C 213.949219 166.027344 213.804688 166.1875 213.691406 166.375 C 213.578125 166.566406 213.5 166.765625 213.457031 166.980469 L 204.429688 212.734375 C 204.375 213.007812 204.382812 213.285156 204.453125 213.554688 C 204.523438 213.828125 204.648438 214.074219 204.832031 214.289062 C 205.011719 214.507812 205.230469 214.675781 205.492188 214.796875 C 205.75 214.914062 206.019531 214.976562 206.304688 214.976562 L 216.425781 214.976562 C 216.648438 214.976562 216.863281 214.9375 217.070312 214.863281 C 217.28125 214.792969 217.472656 214.683594 217.640625 214.546875 C 217.8125 214.40625 217.957031 214.242188 218.070312 214.054688 C 218.183594 213.867188 218.261719 213.667969 218.304688 213.453125 L 220.402344 202.8125 L 227.496094 202.8125 C 231.503906 202.8125 234.878906 202.382812 237.527344 201.53125 C 240.25 200.660156 242.753906 199.183594 244.972656 197.144531 C 246.804688 195.480469 248.316406 193.617188 249.460938 191.601562 C 250.605469 189.585938 251.425781 187.332031 251.902344 184.914062 C 253.085938 178.917969 252.125 174.117188 249.042969 170.644531 C 245.992188 167.203125 241.199219 165.460938 234.796875 165.460938 M 220.25 193.710938 L 226.40625 193.710938 C 230.484375 193.710938 233.527344 192.953125 235.523438 191.4375 C 237.519531 189.925781 238.867188 187.398438 239.566406 183.855469 C 240.234375 180.457031 239.929688 178.058594 238.652344 176.660156 C 237.371094 175.261719 234.808594 174.5625 230.964844 174.5625 L 224.03125 174.5625 L 220.25 193.710938 M 234.796875 167.34375 C 240.648438 167.34375 244.921875 168.855469 247.605469 171.882812 C 250.289062 174.90625 251.097656 179.132812 250.027344 184.554688 C 249.585938 186.789062 248.839844 188.832031 247.789062 190.683594 C 246.742188 192.53125 245.367188 194.226562 243.671875 195.761719 C 241.652344 197.625 239.40625 198.949219 236.9375 199.742188 C 234.464844 200.535156 231.320312 200.929688 227.496094 200.929688 L 218.828125 200.929688 L 216.425781 213.09375 L 206.308594 213.09375 L 215.335938 167.34375 L 234.796875 167.34375 " fill-opacity="1" fill-rule="nonzero"/></svg>