<svg xmlns="http://www.w3.org/2000/svg" xmlns:xlink="http://www.w3.org/1999/xlink" width="500" zoomAndPan="magnify" viewBox="0 0 375 374.999991" height="500" preserveAspectRatio="xMidYMid meet" version="1.0"><defs><clipPath id="eb82bdcd47"><path d="M 135.996094 129 L 238.746094 129 L 238.746094 246 L 135.996094 246 Z M 135.996094 129 " clip-rule="nonzero"/></clipPath></defs><g clip-path="url(#eb82bdcd47)"><path fill="#e44d26" d="M 145.324219 234.289062 L 135.964844 129.054688 L 238.773438 129.054688 L 229.410156 234.273438 L 187.304688 245.972656 Z M 145.324219 234.289062 " fill-opacity="1" fill-rule="nonzero"/></g><path fill="#f16529" d="M 221.390625 227.574219 L 229.394531 137.660156 L 187.371094 137.660156 L 187.371094 237.035156 Z M 221.390625 227.574219 " fill-opacity="1" fill-rule="nonzero"/><path fill="#ebebeb" d="M 187.328125 150.566406 L 155.09375 150.566406 L 158.566406 189.59375 L 187.371094 189.59375 L 187.371094 176.691406 L 170.339844 176.691406 L 169.164062 163.472656 L 187.371094 163.472656 L 187.371094 150.566406 Z M 187.371094 210.167969 L 187.316406 210.179688 L 172.980469 206.300781 L 172.070312 196.007812 L 159.144531 196.007812 L 160.945312 216.273438 L 187.3125 223.578125 L 187.371094 223.5625 Z M 187.371094 210.167969 " fill-opacity="1" fill-rule="nonzero"/><path fill="#ffffff" d="M 187.328125 189.59375 L 203.175781 189.59375 L 201.71875 206.332031 L 187.363281 210.214844 L 187.363281 223.640625 L 213.75 216.308594 L 217.285156 176.683594 L 187.371094 176.683594 Z M 219.257812 154.027344 L 219.566406 150.566406 L 187.320312 150.566406 L 187.320312 163.46875 L 218.40625 163.46875 L 218.660156 160.570312 Z M 219.257812 154.027344 " fill-opacity="1" fill-rule="nonzero"/></svg>