<svg xmlns="http://www.w3.org/2000/svg" xmlns:xlink="http://www.w3.org/1999/xlink" width="500" zoomAndPan="magnify" viewBox="0 0 375 374.999991" height="500" preserveAspectRatio="xMidYMid meet" version="1.0"><defs><filter x="0%" y="0%" width="100%" height="100%" id="f87a040518"><feColorMatrix values="0 0 0 0 1 0 0 0 0 1 0 0 0 0 1 0 0 0 1 0" color-interpolation-filters="sRGB"/></filter><mask id="6e2ea52de1"><g filter="url(#f87a040518)"><rect x="-37.5" width="450" fill="#000000" y="-37.499999" height="449.999989" fill-opacity="0.9"/></g></mask><clipPath id="22f8eb0e8a"><path d="M 7 0.769531 L 49 0.769531 L 49 42 L 7 42 Z M 7 0.769531 " clip-rule="nonzero"/></clipPath><clipPath id="a8afd7c7ec"><path d="M 0.9375 27 L 54.1875 27 L 54.1875 68.269531 L 0.9375 68.269531 Z M 0.9375 27 " clip-rule="nonzero"/></clipPath><clipPath id="092c8d78f2"><rect x="0" width="55" y="0" height="69"/></clipPath></defs><g mask="url(#6e2ea52de1)"><g transform="matrix(1, 0, 0, 1, 160, 153)"><g clip-path="url(#092c8d78f2)"><g clip-path="url(#22f8eb0e8a)"><path fill="#aab8c2" d="M 27.5625 0.785156 C 16.25 0.785156 7.082031 9.9375 7.082031 21.230469 L 7.082031 41.675781 L 15.273438 41.675781 L 15.273438 21.230469 C 15.273438 14.457031 20.777344 8.964844 27.5625 8.964844 C 34.351562 8.964844 39.851562 14.457031 39.851562 21.230469 L 39.851562 41.675781 L 48.042969 41.675781 L 48.042969 21.230469 C 48.042969 9.9375 38.875 0.785156 27.5625 0.785156 Z M 27.5625 0.785156 " fill-opacity="1" fill-rule="nonzero"/></g><g clip-path="url(#a8afd7c7ec)"><path fill="#ffc44d" d="M 54.1875 60.078125 C 54.1875 64.59375 50.519531 68.253906 45.996094 68.253906 L 9.128906 68.253906 C 4.605469 68.253906 0.9375 64.59375 0.9375 60.078125 L 0.9375 35.542969 C 0.9375 31.027344 4.605469 27.363281 9.128906 27.363281 L 45.996094 27.363281 C 50.519531 27.363281 54.1875 31.027344 54.1875 35.542969 Z M 54.1875 60.078125 " fill-opacity="1" fill-rule="nonzero"/></g></g></g></g></svg>